<svg width="18" height="18" viewBox="0 0 18 18" fill="none" xmlns="http://www.w3.org/2000/svg">
<path d="M8.34498 15.8C8.73062 17.0691 9.98985 18 11.4812 18C13.134 18 14.5034 16.8545 14.712 15.3782C16.5418 15.0145 17.6161 14.4255 17.9112 13.6073C18.226 12.7345 17.7026 11.8218 16.3608 10.8909C14.8182 9.82182 14.4365 7.77818 14.0705 5.80364C13.555 3.08364 12.9805 0 8.9982 0C5.01195 0 4.43743 3.08364 3.9298 5.80364C3.5599 7.77818 3.18213 9.82182 1.63958 10.8909C0.293774 11.8218 -0.225658 12.7382 0.0891494 13.6073C0.592841 15.0036 3.37102 15.7418 8.34498 15.8ZM11.4812 16.3636C10.9854 16.3636 10.5447 16.1345 10.2732 15.7891C11.1901 15.7673 12.0243 15.72 12.7798 15.6473C12.524 16.0727 12.04 16.3636 11.4812 16.3636ZM2.70205 12.2C4.80733 10.7418 5.26773 8.26545 5.67698 6.08C6.22003 3.16 6.61747 1.63636 8.9982 1.63636C11.3789 1.63636 11.7764 3.16 12.3194 6.08C12.7247 8.26545 13.1891 10.7382 15.2944 12.2C16.1365 12.7818 16.2191 13.0873 16.2309 13.0873C16.1168 13.2982 15.3573 13.6364 13.7203 13.88C13.7124 13.88 13.7006 13.88 13.6928 13.88C13.6849 13.88 13.6731 13.8836 13.6652 13.8873C12.5398 14.0509 11.0169 14.1673 8.9982 14.1673C3.96522 14.1673 1.95438 13.4364 1.77337 13.1164C1.77337 13.1127 1.82453 12.8109 2.70205 12.2Z" fill="#333333"/>
</svg>
