<svg width="27" height="30" viewBox="0 0 27 30" fill="none" xmlns="http://www.w3.org/2000/svg">
<path d="M8.61476 29.9999C9.34567 29.9999 10.1016 29.9878 10.8762 29.9696C12.5629 29.9393 14.4371 29.9393 16.1238 29.9696C20.1344 30.0423 23.5953 30.109 25.5507 28.2544C26.5127 27.3393 27 26.0484 27 24.4241C27 18.6302 20.9466 13.915 13.5 13.915C6.05345 13.915 0 18.6302 0 24.4241C0 26.0484 0.487274 27.3393 1.44933 28.2544C3.0236 29.7514 5.58491 29.9999 8.61476 29.9999ZM13.5 16.6423C19.391 16.6423 24.1888 20.1332 24.1888 24.4241C24.1888 25.7272 23.7328 26.1635 23.5828 26.309C22.4708 27.3635 19.416 27.309 16.18 27.2484C14.4558 27.2181 12.5442 27.2181 10.82 27.2484C7.58399 27.309 4.52915 27.3696 3.41717 26.309C3.26724 26.1635 2.8112 25.7332 2.8112 24.4302C2.8112 20.1332 7.60273 16.6423 13.5 16.6423Z" fill="#FB5954"/>
<path d="M13.4998 13.5455C17.1044 13.5455 19.8969 9.6 19.8969 6.20606C19.8969 2.78182 17.0232 0 13.4998 0C9.97645 0 7.10278 2.78182 7.10278 6.20606C7.10278 9.6 9.89524 13.5455 13.4998 13.5455ZM13.4998 2.72727C15.4739 2.72727 17.0857 4.28485 17.0857 6.20606C17.0857 8.21818 15.349 10.8182 13.4998 10.8182C11.6507 10.8182 9.91398 8.21818 9.91398 6.20606C9.91398 4.28485 11.5257 2.72727 13.4998 2.72727Z" fill="#FB5954"/>
</svg>
