<svg width="25" height="31" viewBox="0 0 25 31" fill="none" xmlns="http://www.w3.org/2000/svg">
<path d="M0 4.35758V28.6364C0 29.1515 0.294118 29.6242 0.759804 29.8545C0.955882 29.9515 1.16422 30 1.37868 30C1.67279 30 1.96078 29.9091 2.20588 29.7273L12.5 22.0909L22.7941 29.7273C23.2108 30.0364 23.7684 30.0909 24.2402 29.8545C24.7059 29.6242 25 29.1515 25 28.6364V4.35758C25 1.95152 23.027 0 20.5944 0H4.40564C1.97304 0 0 1.95152 0 4.35758ZM2.75735 4.35758C2.75735 3.46061 3.49877 2.72727 4.40564 2.72727H20.6005C21.5074 2.72727 22.2488 3.46061 22.2488 4.35758V25.9091L13.3272 19.297C13.0821 19.1152 12.788 19.0242 12.5 19.0242C12.212 19.0242 11.9179 19.1152 11.6728 19.297L2.75735 25.9091V4.35758Z" fill="#BDBDBD"/>
</svg>
