<svg width="315" height="310" viewBox="0 0 315 310" fill="none" xmlns="http://www.w3.org/2000/svg">
<rect width="315" height="310" rx="11" fill="#FFDA7E"/>
<path opacity="0.7" d="M58.5154 147.56L58.896 283.585L244.989 176.154L244.608 40.1135L58.5154 147.56Z" fill="#55DFFF"/>
<path d="M218.789 146.608L218.821 160.66L236.551 150.415L236.52 136.363L218.789 146.608Z" fill="#F2C557"/>
<path d="M200.598 75.2418V78.1123L236.297 57.4953L236.282 54.6406L200.598 75.2418Z" fill="white"/>
<path d="M194.048 119.14V120.219C200.313 116.603 205.42 119.521 205.435 126.705C205.451 133.905 200.376 142.691 194.112 146.307V147.386C200.884 143.468 206.387 133.953 206.371 126.166C206.371 118.363 200.836 115.223 194.048 119.14Z" fill="white"/>
<path d="M224.577 101.521V102.599C230.826 98.9832 235.948 101.901 235.964 109.086C235.98 116.286 230.905 125.072 224.657 128.672C218.392 132.288 213.301 129.385 213.27 122.185L212.334 122.725C212.35 130.511 217.885 133.667 224.657 129.75C231.429 125.833 236.932 116.333 236.9 108.546C236.884 100.759 231.349 97.6034 224.577 101.521Z" fill="white"/>
<path d="M224.578 100.981C217.552 105.041 211.827 114.938 211.859 123.01L212.334 122.74L213.27 122.201L213.746 121.932C213.73 115.033 218.599 106.611 224.594 103.154V102.615V101.537L224.578 100.981Z" fill="#F2C557"/>
<path d="M213.175 97.7778L213.19 100.632L236.377 87.2314V84.3767L213.175 97.7778Z" fill="white"/>
<path d="M220.502 81.6174V84.4879L236.345 75.3529V72.4824L220.502 81.6174Z" fill="white"/>
<path d="M211.113 81.0781L211.129 83.9486L236.329 69.3898L236.313 66.5352L211.113 81.0781Z" fill="white"/>
<path d="M200.662 99.0309L200.678 101.901L236.361 81.3002L236.345 78.4297L200.662 99.0309Z" fill="white"/>
<path d="M184.929 114.081L184.945 116.936L209.178 102.948L209.162 100.077L184.929 114.081Z" fill="white"/>
<path d="M184.913 108.118V110.989L196.665 104.217L196.649 101.346L184.913 108.118Z" fill="white"/>
<path d="M184.898 102.171V105.042L216.489 86.8034V83.9329L184.898 102.171Z" fill="white"/>
<path d="M184.882 96.2396V99.0942L207.116 86.2641L207.101 83.3936L184.882 96.2396Z" fill="white"/>
<path d="M184.866 90.2765V93.1471L223.705 70.7221V67.8516L184.866 90.2765Z" fill="white"/>
<path d="M173.067 172.998L173.114 187.05L190.829 176.82L190.797 162.769L173.067 172.998Z" fill="#F2C557"/>
<path d="M163.535 136.221C156.494 140.281 150.784 150.161 150.816 158.249C150.832 166.337 156.573 169.604 163.614 165.544C170.656 161.485 176.365 151.604 176.334 143.516L175.858 143.786L174.922 144.325L174.446 144.594C174.462 151.493 169.609 159.914 163.614 163.372C157.62 166.829 152.719 164.038 152.703 157.155C152.687 150.256 157.54 141.835 163.551 138.378V137.838V136.76V136.221H163.535Z" fill="#F2C557"/>
<path d="M127.186 141.454V144.325L138.922 137.553V134.682L127.186 141.454Z" fill="white"/>
<path d="M127.202 147.401V150.256L151.435 136.284V133.414L127.202 147.401Z" fill="white"/>
<path d="M163.535 136.76V137.838C169.784 134.222 174.906 137.141 174.922 144.325L175.858 143.786C175.842 135.999 170.323 132.843 163.535 136.76Z" fill="white"/>
<path d="M155.431 131.098L155.447 133.969L178.633 120.568V117.713L155.431 131.098Z" fill="white"/>
<path d="M162.758 114.953V117.824L178.602 108.673V105.802L162.758 114.953Z" fill="white"/>
<path d="M169.974 98.8722L169.99 101.743L178.57 96.7787V93.9241L169.974 98.8722Z" fill="white"/>
<path d="M153.385 114.414V117.285L178.586 102.726V99.8713L153.385 114.414Z" fill="white"/>
<path d="M142.934 132.367V135.237L178.633 114.62L178.617 111.766L142.934 132.367Z" fill="white"/>
<path d="M142.87 108.578V111.433L178.553 90.8315V87.9609L142.87 108.578Z" fill="white"/>
<path d="M127.17 135.507V138.377L158.762 120.139L158.746 117.269L127.17 135.507Z" fill="white"/>
<path d="M127.154 129.56V132.415L149.373 119.6V116.73L127.154 129.56Z" fill="white"/>
<path d="M127.122 117.665V120.536L138.858 113.748L138.842 110.893L127.122 117.665Z" fill="white"/>
<path d="M127.344 199.404L127.392 213.439L145.123 203.21L145.075 189.159L127.344 199.404Z" fill="#F2C557"/>
<path d="M133.022 153.84C125.996 157.9 120.287 167.796 120.303 175.869C120.319 183.957 126.076 187.224 133.101 183.164C136.796 181.039 140.301 177.169 142.712 172.57C144.726 168.732 145.836 164.672 145.82 161.135C145.805 155.569 143.093 152.096 138.747 152.08L138.525 152.698L138.113 153.904L137.907 154.506C141.618 154.522 143.917 157.456 143.933 162.214C143.949 165.243 142.997 168.7 141.285 171.967C139.223 175.9 136.241 179.183 133.085 181.007C127.091 184.464 122.206 181.673 122.174 174.774C122.158 167.876 127.011 159.47 133.006 155.997V155.458V154.379V153.84H133.022Z" fill="#F2C557"/>
<path d="M133.022 154.38V155.458C134.846 154.395 136.59 153.904 138.113 153.904L138.525 152.698C136.876 152.698 135.004 153.238 133.022 154.38Z" fill="white"/>
<path d="M194.048 118.601C187.023 122.661 181.313 132.541 181.345 140.63C181.361 148.718 187.102 151.985 194.143 147.941V147.401V146.323V145.784C188.149 149.241 183.248 146.45 183.232 139.567C183.216 132.668 188.085 124.247 194.064 120.79V120.25V119.172V118.601H194.048Z" fill="#F2C557"/>
<path d="M101.732 192.172L101.747 200.34L105.918 197.929L105.903 189.761L101.732 192.172Z" fill="#F2C557"/>
<path d="M100.479 214.898C95.3405 217.864 95.4198 246.696 90.2814 249.662C85.143 252.643 85.0796 229.743 79.9254 232.708C74.7711 235.674 74.8028 243.968 69.6486 246.934L69.712 267.662L121.144 237.974L121.08 217.246C115.942 220.211 115.973 228.506 110.819 231.471C105.681 234.437 105.617 211.933 100.479 214.898Z" fill="white"/>
<path d="M93.5961 192.077L93.6278 205.018L97.7988 202.623L97.7513 189.666L93.5961 192.077Z" fill="#F2C557"/>
<path d="M85.4601 191.966L85.5077 209.713L89.6628 207.318L89.6153 189.571L85.4601 191.966Z" fill="#F2C557"/>
<path d="M77.3086 191.887L77.372 214.407L81.543 211.996L81.4795 189.476L77.3086 191.887Z" fill="#F2C557"/>
<path d="M69.1726 191.791L69.2519 219.101L73.4229 216.69L73.3436 189.381L69.1726 191.791Z" fill="#F2C557"/>
<path d="M184.85 84.329V87.1996L196.602 80.4277L196.586 77.5571L184.85 84.329Z" fill="white"/>
<path d="M227.702 65.5518L227.718 68.4065L236.313 63.4426L236.297 60.5879L227.702 65.5518Z" fill="white"/>
<path d="M127.138 123.612V126.467L165.978 104.058L165.962 101.188L127.138 123.612Z" fill="white"/>
<path d="M97.7034 164.434L97.7193 167.289L120.906 153.904V151.049L97.7034 164.434Z" fill="white"/>
<path d="M105.03 148.289L105.046 151.144L120.874 142.009L120.858 139.139L105.03 148.289Z" fill="white"/>
<path d="M112.246 132.208V135.063L120.842 130.115L120.826 127.26L112.246 132.208Z" fill="white"/>
<path d="M95.6417 147.75L95.6576 150.605L120.858 136.062L120.842 133.208L95.6417 147.75Z" fill="white"/>
<path d="M85.1905 165.703L85.2063 168.573L120.89 147.956L120.874 145.086L85.1905 165.703Z" fill="white"/>
<path d="M69.4582 180.738L69.4741 183.592L93.707 169.604L93.6912 166.75L69.4582 180.738Z" fill="white"/>
<path d="M85.126 141.898L85.1419 144.769L120.825 124.168L120.809 121.297L85.126 141.898Z" fill="white"/>
<path d="M69.4262 168.843L69.4421 171.698L101.034 153.476L101.018 150.605L69.4262 168.843Z" fill="white"/>
<path d="M69.4106 162.896L69.4264 165.751L91.6453 152.921V150.066L69.4106 162.896Z" fill="white"/>
<path d="M69.3946 156.949L69.4104 159.803L108.234 137.378V134.524L69.3946 156.949Z" fill="white"/>
<path d="M69.3787 151.001V153.872L81.1304 147.084L81.1145 144.214L69.3787 151.001Z" fill="white"/>
<path d="M69.458 174.79V177.661L81.1938 170.873V168.019L69.458 174.79Z" fill="white"/>
<path d="M195.92 159.803L195.967 173.855L213.698 163.626L213.65 149.574L195.92 159.803Z" fill="#F2C557"/>
<path d="M150.197 186.193L150.245 200.244L167.976 190.015L167.928 175.964L150.197 186.193Z" fill="#F2C557"/>
<path d="M218.852 167.495L218.884 181.546L236.615 171.301L236.567 157.25L218.852 167.495Z" fill="#F2C557"/>
<path d="M195.983 180.69L196.015 194.741L213.746 184.512L213.714 170.461L195.983 180.69Z" fill="#F2C557"/>
<path d="M173.13 193.885L173.162 207.936L190.893 197.707L190.861 183.656L173.13 193.885Z" fill="#F2C557"/>
<path d="M150.261 207.096L150.308 221.131L168.039 210.902L167.991 196.851L150.261 207.096Z" fill="#F2C557"/>
<path d="M127.408 220.275L127.44 234.326L145.17 224.097L145.138 210.045L127.408 220.275Z" fill="#F2C557"/>
<path d="M65.763 130.511L69.9023 128.117L91.5502 115.619L94.4207 113.97L103.984 108.451L104.872 107.944L119.922 99.2527L123.11 97.413L132.689 91.894L136.479 89.7054L164.693 73.4021L170.973 69.7704L180.536 64.2513L190.1 58.7323L193.763 56.623L206.102 49.5022L209.226 47.6943L215.125 44.2845L228.527 36.5452L237.899 31.1372L242.594 28.4253L247.447 25.6182C247.526 25.5706 247.589 25.5389 247.653 25.5072C247.716 25.4755 247.764 25.4596 247.827 25.4279C247.843 25.4279 247.843 25.4279 247.859 25.412C247.875 25.412 247.875 25.412 247.875 25.412C247.907 25.3962 247.954 25.3803 247.986 25.3645C248.033 25.3486 248.081 25.3327 248.129 25.3327C248.176 25.3169 248.208 25.3169 248.24 25.301C248.255 25.301 248.255 25.301 248.255 25.301H248.271C248.319 25.2852 248.382 25.2852 248.414 25.2852C248.462 25.2852 248.525 25.2852 248.557 25.2852C248.573 25.2852 248.589 25.2852 248.604 25.2852C248.62 25.2852 248.62 25.2852 248.636 25.2852C248.668 25.2852 248.7 25.301 248.731 25.301C248.795 25.3327 248.858 25.3645 248.906 25.3962L249.429 25.6975C249.572 25.7768 249.683 25.9037 249.778 26.0781C249.81 26.1416 249.841 26.205 249.857 26.2843C249.873 26.3477 249.889 26.4112 249.905 26.4746C249.921 26.538 249.937 26.6015 249.937 26.6649C249.937 26.7283 249.952 26.7918 249.952 26.8711C249.952 26.9345 249.952 27.0138 249.952 27.0773V27.0614V27.6323V28.2033V28.7901V29.3768V30.5663V31.7557V32.3425C249.952 32.3742 249.952 32.3901 249.952 32.4218V32.9769V33.5795V34.1029C249.952 34.1822 249.952 34.2615 249.952 34.3408V34.7848V35.3875V35.9109C249.952 35.9743 249.952 36.0536 249.952 36.117V36.5769V36.8466C250 37.0844 250 37.3382 250 37.5919V37.7188V37.814C250 38.1629 250 38.5118 250 38.8607L240.453 44.3638L236.773 46.489C230.652 50.0256 224.514 53.5622 218.393 57.0988L211.795 60.905L202.232 66.4241L192.669 71.9431L183.106 77.4621L173.527 82.9811L154.385 94.035L144.806 99.554L135.242 105.073L125.679 110.592L116.116 116.111L106.553 121.63L96.9899 127.149L87.4268 132.668L77.8795 138.187L68.3322 143.706L58.785 149.209C60.0696 148.48 61.7189 146.593 63.1304 144.15C63.1304 144.182 63.1304 139.916 63.1304 139.948C62.7815 139.741 62.4167 139.535 62.0361 139.329C61.9251 139.266 61.8141 139.202 61.7031 139.139C61.2907 138.901 60.8784 138.663 60.466 138.425C60.3867 138.377 60.3074 138.33 60.2281 138.282C60.1488 138.235 60.0854 138.203 60.0061 138.155C59.7841 138.029 59.5462 137.886 59.3242 137.759C59.2924 137.743 59.2607 137.727 59.229 137.711C59.0228 137.585 58.8167 137.474 58.6264 137.363C58.6105 137.347 58.5788 137.347 58.5629 137.331C58.5312 137.299 58.4836 137.283 58.436 137.267C58.3885 137.251 58.3568 137.22 58.325 137.204C58.2775 137.172 58.2299 137.14 58.1823 137.125C58.1189 137.077 58.0554 137.045 57.992 137.014C57.9761 137.014 57.9761 136.998 57.9603 136.998C57.8968 136.966 57.8334 136.918 57.77 136.887C57.5797 136.776 57.4211 136.681 57.2625 136.601L56.7391 136.3C56.6915 136.268 56.6281 136.237 56.5805 136.205C56.5488 136.189 56.5171 136.173 56.4854 136.157C56.4695 136.141 56.4536 136.141 56.4378 136.125C56.4219 136.125 56.4061 136.11 56.4061 136.094C56.4061 136.094 56.3902 136.094 56.3902 136.078C56.3585 136.062 56.3426 136.046 56.3268 136.046C56.3268 136.046 56.3109 136.03 56.2951 136.03C56.2792 136.03 56.2633 136.014 56.2633 136.014C56.2633 136.014 56.2475 135.999 56.2316 135.999C56.2158 135.999 56.2157 135.999 56.2157 135.983H56.1999L65.763 130.511ZM248.89 31.1372C248.826 31.2958 248.763 31.4385 248.7 31.5971C248.874 31.2324 249.017 30.8835 249.159 30.5346C249.144 30.5663 249.144 30.5821 249.128 30.6139C249.048 30.7883 248.969 30.9628 248.89 31.1372ZM249.286 30.1539C249.35 30.0112 249.397 29.8685 249.445 29.7257C249.397 29.8685 249.35 30.0112 249.286 30.1539ZM249.572 29.2817C249.604 29.1865 249.635 29.0914 249.651 29.0121C249.635 29.0914 249.604 29.1865 249.572 29.2817ZM249.81 28.3777C249.826 28.346 249.826 28.3143 249.841 28.2826C249.826 28.3143 249.826 28.346 249.81 28.3777ZM248.303 37.9091C249.128 38.3849 249.683 38.6862 249.889 38.7972C249.667 38.6704 249.128 38.369 248.303 37.9091ZM247.764 37.5919L247.748 35.5144C247.764 36.5769 247.764 37.6237 247.764 37.5919ZM248.668 31.6447C248.636 31.6923 248.604 31.7399 248.589 31.8033C248.335 32.3267 248.065 32.8659 247.748 33.4051C248.097 32.8024 248.398 32.2157 248.668 31.6447Z" fill="#393971"/>
<path d="M56.2316 137.156V137.125C56.2316 136.76 56.2316 136.395 56.2316 136.014C56.2316 136.014 56.3743 136.11 56.6281 136.252C56.6598 136.268 56.7074 136.3 56.755 136.316C56.7708 136.316 56.7708 136.316 56.7708 136.316L57.2942 136.617C57.4052 136.68 57.5321 136.76 57.6748 136.839C57.77 136.887 57.881 136.95 57.9761 137.014C58.103 137.077 58.214 137.156 58.3568 137.22C58.4361 137.267 58.5312 137.315 58.6105 137.362C58.7215 137.426 58.8167 137.473 58.9277 137.537C59.0387 137.6 59.1656 137.68 59.2766 137.743C59.4035 137.822 59.5621 137.902 59.7048 137.981C59.7365 138.013 59.7841 138.029 59.8317 138.06C60.0537 138.203 60.3074 138.33 60.5612 138.473C60.6722 138.536 60.7832 138.599 60.8942 138.663C61.1956 138.837 61.5127 139.028 61.8299 139.202C62.2898 139.472 62.7339 139.725 63.1621 139.963V144.166C62.9242 144.578 62.6705 144.975 62.4326 145.356C62.3533 145.467 62.274 145.578 62.1947 145.704C62.0837 145.863 61.9727 146.053 61.8458 146.212C61.7982 146.275 61.7506 146.323 61.703 146.386C61.5127 146.64 61.3383 146.862 61.148 147.084C61.0687 147.179 60.9894 147.29 60.9101 147.385C60.8784 147.417 60.8466 147.449 60.7991 147.497C60.7198 147.592 60.6246 147.687 60.5453 147.766C60.4502 147.877 60.3392 147.988 60.244 148.099C60.1647 148.178 60.0854 148.258 59.9903 148.321C59.9427 148.369 59.8951 148.416 59.8317 148.464C59.7999 148.496 59.7524 148.543 59.7206 148.575C59.5779 148.702 59.4352 148.813 59.3083 148.908C59.2607 148.94 59.229 148.971 59.1814 148.987C59.1497 149.003 59.1339 149.035 59.1021 149.051C59.0546 149.082 59.007 149.114 58.9594 149.146C58.8642 149.209 58.7532 149.273 58.6581 149.32C58.5946 149.352 58.5471 149.368 58.4836 149.4C58.4678 149.415 58.4519 149.415 58.4202 149.431C58.4043 149.431 58.3726 149.447 58.3568 149.463C58.2616 149.495 58.1664 149.526 58.0713 149.558C58.0079 149.574 57.9603 149.558 57.9127 149.574C57.881 149.574 57.8334 149.574 57.8017 149.574C57.7858 149.574 57.7382 149.574 57.7224 149.574C57.5797 149.558 57.4686 149.526 57.3418 149.463L56.8184 149.162C56.8184 149.162 56.8184 149.146 56.8025 149.146C56.7232 149.098 56.644 149.035 56.5964 148.956L56.5805 148.94C56.5488 148.892 56.5171 148.845 56.4854 148.781C56.4695 148.749 56.4536 148.702 56.4378 148.67C56.4378 148.654 56.4219 148.638 56.4219 148.638C56.4219 148.623 56.4219 148.623 56.4061 148.607C56.3902 148.543 56.3743 148.48 56.3426 148.4C56.3426 148.369 56.3426 148.337 56.3268 148.305C56.3268 148.274 56.3268 148.258 56.3109 148.242C56.3109 148.21 56.295 148.194 56.295 148.163C56.295 148.067 56.2792 147.972 56.2792 147.861V147.592V147.243V146.83V146.529V146.101V145.689C56.2792 145.546 56.2792 145.403 56.2792 145.244V144.911V144.325V143.754C56.2792 143.722 56.2792 143.69 56.2792 143.643V143.119V142.834C56.2792 142.533 56.2792 142.215 56.2792 141.914V141.311V140.994C56.2792 140.725 56.2792 140.455 56.2792 140.185V140.106V140.074C56.2792 139.583 56.2792 139.091 56.2792 138.599V138.33V138.155C56.2792 137.838 56.2792 137.521 56.2792 137.204V137.156H56.2316Z" fill="#30305E"/>
<path d="M70.3781 134.587C69.3314 135.19 68.4909 136.649 68.4909 137.838C68.4909 139.044 69.3473 139.504 70.3781 138.917C71.4249 138.314 72.2654 136.871 72.2495 135.666C72.2654 134.476 71.409 133.985 70.3781 134.587Z" fill="white"/>
<path d="M81.2099 128.339C80.1791 128.941 79.3385 130.4 79.3385 131.59C79.3385 132.779 80.1949 133.255 81.2258 132.668C82.2566 132.066 83.113 130.622 83.113 129.417C83.113 128.212 82.2566 127.736 81.2099 128.339Z" fill="white"/>
<path d="M92.042 122.074C90.9953 122.677 90.1547 124.136 90.1706 125.341C90.1706 126.531 91.027 127.007 92.0578 126.404C93.1045 125.801 93.9451 124.358 93.9451 123.153C93.9451 121.963 93.0887 121.472 92.042 122.074Z" fill="white"/>
</svg>
