<svg width="18" height="18" viewBox="0 0 18 18" fill="none" xmlns="http://www.w3.org/2000/svg">
<path d="M9 0C4.03636 0 0 4.03636 0 9C0 13.9636 4.03636 18 9 18C13.9636 18 18 13.9636 18 9C18 4.03636 13.9636 0 9 0ZM9 16.3636C4.93818 16.3636 1.63636 13.0618 1.63636 9C1.63636 4.93818 4.93818 1.63636 9 1.63636C13.0618 1.63636 16.3636 4.93818 16.3636 9C16.3636 13.0618 13.0618 16.3636 9 16.3636Z" fill="#333333"/>
<path d="M12.9854 5.01441C12.6654 4.69441 12.1491 4.69441 11.8291 5.01441L8.99999 7.8435L6.1709 5.01441C5.8509 4.69441 5.33454 4.69441 5.01454 5.01441C4.69454 5.33441 4.69454 5.85078 5.01454 6.17078L7.84363 8.99987L5.01454 11.829C4.69454 12.149 4.69454 12.6653 5.01454 12.9853C5.17454 13.1453 5.38545 13.2253 5.59272 13.2253C5.79999 13.2253 6.0109 13.1453 6.1709 12.9853L8.99999 10.1562L11.8291 12.9853C11.9891 13.1453 12.2 13.2253 12.4073 13.2253C12.6145 13.2253 12.8254 13.1453 12.9854 12.9853C13.3054 12.6653 13.3054 12.149 12.9854 11.829L10.1564 8.99987L12.9854 6.17078C13.3054 5.85078 13.3054 5.33441 12.9854 5.01441Z" fill="#333333"/>
</svg>
