<svg width="153" height="112" viewBox="0 0 153 112" fill="none" xmlns="http://www.w3.org/2000/svg">
<path d="M59.2573 41.404C60.5266 37.3951 64.5387 17.4259 62.2906 16.1542C60.0426 14.8826 57.5041 20.1632 45.2956 36.8993L59.2573 41.404Z" fill="#F0FBFF"/>
<path d="M69.5405 91.4293L87.622 102.475L90.4509 93.8756L82.0502 89.565L69.5405 91.4293Z" fill="#445780"/>
<path d="M34.0444 95.4596L52.1259 106.506L54.9548 97.9059L46.5541 93.606L34.0444 95.4596Z" fill="#445780"/>
<path d="M107.855 59.7242L125.936 70.7703L128.765 62.1813L120.364 57.8706L107.855 59.7242Z" fill="#445780"/>
<path d="M114.481 42.0828L132.562 53.1289L135.38 44.5399L126.98 40.2293L114.481 42.0828Z" fill="#445780"/>
<path d="M152.945 110.504C152.547 112.12 138.586 112.261 122.171 102.874C105.757 93.4768 66.1953 69.7897 54.7613 56.5775C43.3272 43.3653 33.9584 33.2783 35.7117 30.347C37.465 27.4158 61.5055 41.5009 72.3479 47.0832C83.1903 52.6547 118.654 72.3329 130.379 78.7882C142.103 85.2542 147.965 96.1171 148.546 98.1646C149.138 100.223 153.537 108.155 152.945 110.504Z" fill="white"/>
<path d="M54.7612 56.5774C43.3272 43.3652 33.9584 33.2782 35.7117 30.347C35.8838 30.0668 36.2602 29.9483 36.7981 29.9483C42.2085 40.7896 57.6116 59.0453 77.8874 71.9449C102.573 87.6681 130.422 111.582 152.999 110.051C152.999 110.224 152.988 110.375 152.945 110.515C152.547 112.131 138.586 112.271 122.171 102.885C105.757 93.4767 66.1952 69.7896 54.7612 56.5774Z" fill="#D1DEEE"/>
<path d="M79.4256 72.8719C76.7043 72.1499 33.1195 92.3992 0.00058628 97.0978C0.00058628 97.0978 -0.14999 99.2963 4.39995 100.773C8.93914 102.238 97.3135 91.2246 107.855 89.9098C107.855 89.9098 83.825 74.0465 79.4256 72.8719Z" fill="white"/>
<path d="M97.0123 61.1362C105.219 54.6702 115.094 43.1607 134.132 15.9819C134.132 15.9819 139.21 17.1889 139.07 21.9738C138.93 26.7586 122.311 63.3454 117.525 72.8612C117.525 72.8612 93.4304 63.9489 97.0123 61.1362Z" fill="white"/>
<path d="M57.2998 41.6949C57.3858 43.0097 42.1225 34.6685 41.0792 32.6856C40.0466 30.7135 32.6462 0 35.4966 0C38.3471 0 41.0577 1.63805 42.8432 5.48533C44.4567 8.96619 56.9125 35.8217 57.2998 41.6949Z" fill="#445780"/>
<path d="M36.0989 36.6084C33.5712 37.74 13.7257 46.1027 11.284 46.7924C8.84228 47.4821 9.0359 49.9284 15.9738 50.0254C22.9116 50.1224 50.3619 50.7151 51.4375 49.3465C52.5132 47.9563 43.6284 33.2246 36.0989 36.6084Z" fill="#F0FBFF"/>
<path d="M86.1483 97.8305C85.8364 100.385 86.8797 102.605 88.4824 102.809C90.0851 103.014 91.6448 101.107 91.9568 98.5526C92.2687 95.9985 91.2253 93.7785 89.6226 93.5737C88.0199 93.3798 86.4602 95.2765 86.1483 97.8305Z" fill="#F0F9FD"/>
<path d="M88.7191 101.646C89.5151 101.646 90.5692 100.32 90.8058 98.4126C91.0532 96.4405 90.311 94.8456 89.4828 94.7486C89.4828 94.7486 89.4828 94.7486 89.472 94.7486C88.59 94.7486 87.5467 96.0741 87.31 97.9816C87.0626 99.9537 87.8048 101.538 88.6331 101.646H88.7191Z" fill="#D1DEEE"/>
<path d="M50.6523 101.861C50.3403 104.415 51.3837 106.635 52.9864 106.84C54.5891 107.045 56.1488 105.137 56.4607 102.583C56.7726 100.029 55.7293 97.8092 54.1266 97.6044C52.5239 97.4105 50.9642 99.3179 50.6523 101.861Z" fill="#F0F9FD"/>
<path d="M53.2231 105.676C54.0191 105.676 55.0732 104.35 55.3099 102.443C55.5573 100.471 54.8151 98.8758 53.9868 98.7788C53.1048 98.7788 52.0614 100.104 51.8248 102.012C51.5774 103.984 52.3196 105.568 53.1478 105.676H53.2231Z" fill="#D1DEEE"/>
<path d="M124.462 66.1256C124.151 68.6689 125.194 70.8997 126.797 71.1044C128.399 71.2984 129.959 69.4017 130.271 66.8476C130.583 64.3044 129.539 62.0736 127.937 61.8688C126.334 61.6748 124.774 63.5823 124.462 66.1256Z" fill="#F0F9FD"/>
<path d="M127.033 69.9406C127.829 69.9406 128.883 68.6043 129.12 66.6968C129.367 64.7247 128.625 63.1297 127.797 63.0327C127.797 63.0327 127.797 63.0327 127.786 63.0327C126.904 63.0327 125.861 64.3583 125.624 66.2657C125.377 68.2379 126.119 69.8328 126.947 69.9298L127.033 69.9406Z" fill="#D1DEEE"/>
<path d="M131.088 48.4842C130.777 51.0275 131.82 53.2583 133.423 53.4631C135.025 53.6571 136.585 51.7604 136.897 49.2063C137.209 46.6522 136.165 44.4322 134.563 44.2275C132.96 44.0335 131.4 45.941 131.088 48.4842Z" fill="#F0F9FD"/>
<path d="M133.659 52.2992C134.455 52.2992 135.509 50.9737 135.746 49.0662C135.993 47.0941 135.251 45.4991 134.423 45.4021C134.423 45.4021 134.423 45.4021 134.412 45.4021C133.53 45.4021 132.487 46.7276 132.25 48.6351C132.003 50.6073 132.745 52.1914 133.573 52.2992H133.659Z" fill="#D1DEEE"/>
<path d="M140.436 94.9101C142.609 94.576 144.2 93.7031 145.491 92.647C146.986 94.8347 147.944 96.6344 148.352 97.6474C145.997 99.9751 143.114 100.589 140.436 100.395V94.9101Z" fill="#445780"/>
<path d="M133.014 94.2527C135.413 94.8885 137.402 95.1149 139.07 95.0394V100.223C137.306 99.9105 135.692 99.2962 134.477 98.6604C130.766 96.7098 133.014 94.2527 133.014 94.2527Z" fill="#445780"/>
<path d="M95.259 77.2578L96.227 77.8721V79.6395L95.259 79.0252V77.2578Z" fill="#445780"/>
<path d="M97.1844 78.4864L98.1524 79.1114V80.868L97.1844 80.2537V78.4864Z" fill="#445780"/>
<path d="M99.1205 79.7259L100.089 80.3401V82.0967L99.1205 81.4825V79.7259Z" fill="#445780"/>
<path d="M102.982 82.1829L103.95 82.7972V84.5645L102.982 83.9503V82.1829Z" fill="#445780"/>
<path d="M101.046 80.9544L102.014 81.5686V83.3252L101.046 82.711V80.9544Z" fill="#445780"/>
<path d="M89.472 73.5723L90.4294 74.1866V75.9432L89.472 75.3289V73.5723Z" fill="#445780"/>
<path d="M91.3974 74.8008L92.3655 75.4151V77.1717L91.3974 76.5574V74.8008Z" fill="#445780"/>
<path d="M93.3336 76.0293L94.2909 76.6436V78.411L93.3336 77.7859V76.0293Z" fill="#445780"/>
<path d="M104.907 83.4114L105.875 84.0257V85.7931L104.907 85.1788V83.4114Z" fill="#445780"/>
<path d="M112.631 88.3365L113.599 88.9507V90.7181L112.631 90.1038V88.3365Z" fill="#445780"/>
<path d="M114.567 89.565L115.524 90.19V91.9466L114.567 91.3324V89.565Z" fill="#445780"/>
<path d="M110.705 87.1079L111.662 87.7222V89.4896L110.705 88.8645V87.1079Z" fill="#445780"/>
<path d="M108.769 85.8794L109.737 86.4937V88.2503L108.769 87.636V85.8794Z" fill="#445780"/>
<path d="M106.844 84.6507L107.801 85.2649V87.0215L106.844 86.4073V84.6507Z" fill="#445780"/>
<path d="M87.5359 72.333L88.5039 72.9473V74.7147L87.5359 74.1004V72.333Z" fill="#445780"/>
<path d="M116.492 92.5608V90.8042L117.46 91.4185V93.1751L116.492 92.5608Z" fill="#445780"/>
<path d="M66.3028 58.7974L67.2709 59.4117V61.1683L66.3028 60.554V58.7974Z" fill="#445780"/>
<path d="M62.4413 56.3296L63.4094 56.9439V58.7113L62.4413 58.097V56.3296Z" fill="#445780"/>
<path d="M64.3774 57.5689L65.3347 58.1831V59.9397L64.3774 59.3255V57.5689Z" fill="#445780"/>
<path d="M68.2389 60.0259L69.1963 60.6402V62.4076L68.2389 61.7825V60.0259Z" fill="#445780"/>
<path d="M60.5159 55.1011L61.484 55.7154V57.4827L60.5159 56.8577V55.1011Z" fill="#445780"/>
<path d="M118.417 92.0328L119.385 92.647V94.4144L118.417 93.7893V92.0328Z" fill="#445780"/>
<path d="M70.1643 61.2547L71.1324 61.8689V63.6363L70.1643 63.022V61.2547Z" fill="#445780"/>
<path d="M58.5797 53.8726L59.5478 54.4868V56.2434L58.5797 55.6292V53.8726Z" fill="#445780"/>
<path d="M72.1005 62.4832L73.0578 63.0974V64.8648L72.1005 64.2506V62.4832Z" fill="#445780"/>
<path d="M81.7489 68.6475L82.717 69.2618V71.0184L81.7489 70.4041V68.6475Z" fill="#445780"/>
<path d="M85.6105 71.1045L86.5678 71.7188V73.4862L85.6105 72.8719V71.1045Z" fill="#445780"/>
<path d="M83.6744 69.876L84.6425 70.4903V72.2469L83.6744 71.6326V69.876Z" fill="#445780"/>
<path d="M79.8128 67.408L80.7809 68.033V69.7896L79.8128 69.1754V67.408Z" fill="#445780"/>
<path d="M74.0259 63.7224L74.9939 64.3367V66.0933L74.0259 65.479V63.7224Z" fill="#445780"/>
<path d="M75.9513 64.951L76.9193 65.5652V67.3218L75.9513 66.7076V64.951Z" fill="#445780"/>
<path d="M77.8874 66.1795L78.8554 66.7937V68.5611L77.8874 67.9468V66.1795Z" fill="#445780"/>
<path d="M37.3144 2.6296C37.4865 2.66193 37.6908 2.73737 37.9167 2.85591C38.1534 2.96368 38.4223 3.093 38.6697 3.30853C38.9386 3.50251 39.229 3.72882 39.4872 4.03057C39.7668 4.31076 40.0572 4.63406 40.3154 5.02202C40.6058 5.38843 40.8747 5.79794 41.1329 6.25056C41.4018 6.6924 41.6599 7.16658 41.8966 7.68386C42.4129 8.68609 42.8324 9.83919 43.3272 11.0031C43.822 12.1777 44.3383 13.4278 44.8761 14.7102C45.9195 17.2966 47.0274 20.0447 48.1353 22.8035C49.2432 25.5624 50.3511 28.3104 51.3514 30.9076C51.857 32.2008 52.3518 33.4509 52.6637 34.7441C52.739 35.0674 52.8035 35.4015 52.8143 35.7571C52.8143 36.0804 52.8143 36.6084 52.3195 36.921C51.8462 37.1581 51.4805 37.018 51.1793 36.9533C50.8674 36.8671 50.5985 36.7378 50.3403 36.6192C49.3077 36.1235 48.458 35.5308 47.7158 35.0243C46.9736 34.507 46.3282 34.0436 45.8119 33.6556C44.7685 32.8797 44.1984 32.4055 44.1984 32.4055C44.1984 32.4055 44.8331 32.7935 45.941 33.4617C46.5003 33.7957 47.1672 34.2052 47.9524 34.6471C48.7376 35.0889 49.6304 35.5847 50.6092 36.0157C50.8566 36.1127 51.1148 36.2097 51.3622 36.2744C51.5988 36.3282 51.8785 36.339 51.943 36.2744C51.9968 36.2636 52.0506 36.0696 52.0291 35.8002C52.0076 35.5416 51.943 35.2506 51.857 34.9596C51.5128 33.785 50.9427 32.5564 50.4049 31.274C50.2758 30.983 50.1575 30.6813 50.0284 30.3903L43.51 26.8771L49.426 28.9786C48.6408 27.1034 47.8448 25.1636 47.0489 23.2238C46.9198 22.8897 46.7907 22.5557 46.6509 22.2108L40.8962 19.0209L46.0808 20.7991C45.3279 18.8485 44.5857 16.9195 43.8973 15.0767C43.6714 14.4624 43.4562 13.8589 43.2411 13.277L38.2717 10.281L42.7248 11.8544C42.6603 11.6712 42.585 11.488 42.5204 11.3048C42.0794 10.0871 41.746 8.96628 41.2942 7.95328C41.1006 7.43599 40.864 6.9726 40.6381 6.51998C40.4337 6.05658 40.2078 5.64707 39.9604 5.26988C39.7453 4.88192 39.4979 4.54785 39.2505 4.25688C39.0246 3.94435 38.7665 3.70727 38.5298 3.49173C38.304 3.25465 38.0673 3.11455 37.8522 2.98523C37.6478 2.84513 37.465 2.73737 37.2928 2.68348C36.9702 2.55416 36.7981 2.4895 36.7981 2.4895C36.7981 2.4895 36.9809 2.54339 37.3144 2.6296Z" fill="#D1DEEE"/>
</svg>
