<svg width="315" height="70" viewBox="0 0 315 70" fill="none" xmlns="http://www.w3.org/2000/svg">
<rect width="315" height="70" rx="8" fill="#F4F5F9"/>
<path d="M55.5 23C46.9515 23 40 27.8227 40 33.755C40 39.6873 46.9515 44.51 55.5 44.51C57.6356 44.51 59.6897 44.2187 61.6186 43.6484L68.8832 47.814C69.1024 47.938 69.3467 48 69.5909 48C69.9166 48 70.236 47.8884 70.4927 47.6777C70.9499 47.3057 71.119 46.6858 70.9186 46.1341L68.5451 39.5943C70.1545 37.8649 71 35.8626 71 33.755C71 27.8227 64.0485 23 55.5 23ZM65.5891 39.7059L66.9606 43.4872L62.4891 40.9271C62.2699 40.8031 62.0257 40.7411 61.7814 40.7411C61.6311 40.7411 61.4808 40.7659 61.3305 40.8155C59.5081 41.423 57.5479 41.7268 55.4937 41.7268C48.6236 41.7206 42.8182 38.0694 42.8182 33.755C42.8182 29.4406 48.6236 25.7895 55.5 25.7895C62.3701 25.7895 68.1818 29.4344 68.1818 33.755C68.1818 35.7573 66.9731 37.2822 65.9586 38.212C65.5453 38.5901 65.4012 39.179 65.5891 39.7059Z" fill="#FB5954"/>
<path d="M254.615 49.9999C255.346 49.9999 256.102 49.9878 256.876 49.9696C258.563 49.9393 260.437 49.9393 262.124 49.9696C266.134 50.0423 269.595 50.109 271.551 48.2544C272.513 47.3393 273 46.0484 273 44.4241C273 38.6302 266.947 33.915 259.5 33.915C252.053 33.915 246 38.6302 246 44.4241C246 46.0484 246.487 47.3393 247.449 48.2544C249.024 49.7514 251.585 49.9999 254.615 49.9999ZM259.5 36.6423C265.391 36.6423 270.189 40.1332 270.189 44.4241C270.189 45.7272 269.733 46.1635 269.583 46.309C268.471 47.3635 265.416 47.309 262.18 47.2484C260.456 47.2181 258.544 47.2181 256.82 47.2484C253.584 47.309 250.529 47.3696 249.417 46.309C249.267 46.1635 248.811 45.7332 248.811 44.4302C248.811 40.1332 253.603 36.6423 259.5 36.6423Z" fill="#BDBDBD"/>
<path d="M259.5 33.5455C263.104 33.5455 265.897 29.6 265.897 26.2061C265.897 22.7818 263.023 20 259.5 20C255.976 20 253.103 22.7818 253.103 26.2061C253.103 29.6 255.895 33.5455 259.5 33.5455ZM259.5 22.7273C261.474 22.7273 263.086 24.2848 263.086 26.2061C263.086 28.2182 261.349 30.8182 259.5 30.8182C257.651 30.8182 255.914 28.2182 255.914 26.2061C255.914 24.2848 257.526 22.7273 259.5 22.7273Z" fill="#BDBDBD"/>
<path d="M171.321 31.5431C170.845 31.2159 170.056 30.6766 169.943 30.41C169.812 30.107 169.975 29.1739 170.075 28.5619C170.319 27.1319 170.601 25.508 169.449 24.3931C168.303 23.2781 166.619 23.5508 165.142 23.7871C164.51 23.8901 163.546 24.0416 163.233 23.9144C162.957 23.8053 162.4 23.0358 162.062 22.5813C161.223 21.43 160.178 20 158.494 20C156.81 20 155.764 21.43 154.925 22.5813C154.587 23.0418 154.03 23.8053 153.755 23.9204C153.442 24.0477 152.484 23.8901 151.846 23.7932C150.368 23.5569 148.684 23.2842 147.539 24.3991C146.393 25.508 146.668 27.138 146.913 28.568C147.019 29.18 147.175 30.1131 147.044 30.4161C146.931 30.6827 146.136 31.222 145.661 31.5492C144.477 32.3551 143 33.367 143 34.997C143 36.6269 144.477 37.6389 145.667 38.4508C146.143 38.778 146.931 39.3173 147.05 39.5839C147.182 39.8869 147.019 40.814 146.919 41.432C146.675 42.862 146.393 44.486 147.545 45.6009C148.69 46.7098 150.368 46.4431 151.852 46.2068C152.484 46.1038 153.442 45.9523 153.761 46.0796C154.037 46.1886 154.594 46.9582 154.932 47.4187C155.771 48.57 156.822 50 158.5 50C160.184 50 161.229 48.57 162.068 47.4187C162.406 46.9582 162.963 46.1947 163.239 46.0796C163.552 45.9523 164.51 46.1099 165.148 46.2129C166.626 46.4492 168.31 46.7219 169.455 45.6069C170.601 44.4981 170.325 42.8681 170.081 41.4381C169.975 40.8261 169.818 39.899 169.95 39.59C170.062 39.3234 170.857 38.7841 171.333 38.4569C172.523 37.6449 174 36.6269 174 35.003C173.987 33.367 172.51 32.3551 171.321 31.5431ZM169.693 36.227C168.742 36.8754 167.765 37.548 167.339 38.5417C166.901 39.5657 167.101 40.7413 167.295 41.8804C167.383 42.4015 167.546 43.3468 167.446 43.6679C167.114 43.7649 166.175 43.6134 165.605 43.5225C164.428 43.3347 163.214 43.1408 162.156 43.5649C161.129 43.977 160.434 44.9283 159.765 45.8433C159.42 46.3159 158.775 47.2006 158.513 47.2793C158.212 47.2006 157.567 46.322 157.223 45.8433C156.553 44.9222 155.858 43.977 154.832 43.5649C154.362 43.3771 153.868 43.3104 153.354 43.3104C152.703 43.3104 152.04 43.4195 151.382 43.5225C150.844 43.6074 149.867 43.7649 149.536 43.6679C149.435 43.3468 149.598 42.4015 149.686 41.8865C149.88 40.7473 150.08 39.5718 149.642 38.5478C149.216 37.554 148.233 36.8814 147.288 36.2331C146.8 35.8998 145.886 35.2757 145.805 35.0212C145.886 34.7304 146.794 34.1062 147.288 33.773C148.24 33.1246 149.216 32.452 149.642 31.4583C150.08 30.4343 149.88 29.2587 149.686 28.1196C149.598 27.5985 149.435 26.6532 149.536 26.3381C149.867 26.2412 150.844 26.3987 151.376 26.4835C152.547 26.6714 153.767 26.8653 154.825 26.4411C155.852 26.0291 156.547 25.0778 157.217 24.1628C157.561 23.6902 158.206 22.8055 158.469 22.7267C158.769 22.8055 159.414 23.6841 159.758 24.1628C160.428 25.0838 161.123 26.0291 162.15 26.4411C163.208 26.8653 164.422 26.6714 165.599 26.4835C166.137 26.3987 167.108 26.2412 167.439 26.3381C167.54 26.6593 167.377 27.6045 167.289 28.1196C167.095 29.2587 166.895 30.4343 167.333 31.4583C167.759 32.452 168.742 33.1246 169.687 33.773C170.163 34.1002 171.045 34.7061 171.158 35.003C171.051 35.2939 170.169 35.8998 169.693 36.227Z" fill="#BDBDBD"/>
<path d="M158.494 28.8708C155.007 28.8708 152.165 31.6157 152.165 34.9969C152.165 38.378 155.001 41.1229 158.494 41.1229C161.987 41.1229 164.823 38.378 164.823 34.9969C164.823 31.6157 161.981 28.8708 158.494 28.8708ZM158.494 38.3962C156.56 38.3962 154.982 36.8753 154.982 34.9969C154.982 33.1245 156.553 31.5976 158.494 31.5976C160.428 31.5976 162.006 33.1185 162.006 34.9969C162.006 36.8692 160.428 38.3962 158.494 38.3962Z" fill="#BDBDBD"/>
</svg>
