<svg width="21" height="18" viewBox="0 0 21 18" fill="none" xmlns="http://www.w3.org/2000/svg">
<path d="M10.4994 0C4.70882 0 0 3.47235 0 7.74361C0 12.0149 4.70882 15.4872 10.4994 15.4872C11.946 15.4872 13.3374 15.2775 14.644 14.8668L19.5649 17.8661C19.7134 17.9554 19.8788 18 20.0443 18C20.2649 18 20.4812 17.9197 20.6552 17.7679C20.9648 17.5001 21.0794 17.0538 20.9436 16.6566L19.3358 11.9479C20.4261 10.7027 20.9988 9.2611 20.9988 7.74361C20.9988 3.47235 16.29 0 10.4994 0ZM17.3335 12.0283L18.2626 14.7508L15.2337 12.9075C15.0852 12.8182 14.9197 12.7736 14.7543 12.7736C14.6525 12.7736 14.5507 12.7915 14.4489 12.8272C13.2144 13.2646 11.8866 13.4833 10.4951 13.4833C5.84148 13.4788 1.90898 10.85 1.90898 7.74361C1.90898 4.63724 5.84148 2.00843 10.4994 2.00843C15.1531 2.00843 19.0898 4.63278 19.0898 7.74361C19.0898 9.18522 18.2711 10.2832 17.5838 10.9526C17.3038 11.2249 17.2063 11.6489 17.3335 12.0283Z" fill="white"/>
</svg>
