<svg width="40" height="40" viewBox="0 0 40 40" fill="none" xmlns="http://www.w3.org/2000/svg">
<rect width="40" height="40" rx="8" transform="matrix(1 0 0 -1 0 40)" fill="white"/>
<path d="M12 13.7598V29.1364C12 29.4626 12.1882 29.762 12.4863 29.9079C12.6118 29.9693 12.7451 30 12.8824 30C13.0706 30 13.2549 29.9424 13.4118 29.8273L20 24.9909L26.5882 29.8273C26.8549 30.023 27.2118 30.0576 27.5137 29.9079C27.8118 29.762 28 29.4626 28 29.1364V13.7598C28 12.236 26.7373 11 25.1804 11H14.8196C13.2627 11 12 12.236 12 13.7598ZM13.7647 13.7598C13.7647 13.1917 14.2392 12.7273 14.8196 12.7273H25.1843C25.7647 12.7273 26.2392 13.1917 26.2392 13.7598V27.4091L20.5294 23.2214C20.3725 23.1063 20.1843 23.0487 20 23.0487C19.8157 23.0487 19.6275 23.1063 19.4706 23.2214L13.7647 27.4091V13.7598Z" fill="#373737"/>
</svg>
