<svg width="16" height="19" viewBox="0 0 16 19" fill="none" xmlns="http://www.w3.org/2000/svg">
<path d="M0 2.75969V18.1357C0 18.4619 0.188228 18.7613 0.486256 18.9071C0.611741 18.9686 0.745069 18.9993 0.882319 18.9993C1.07055 18.9993 1.25485 18.9417 1.41171 18.8265L7.99969 13.9904L14.5877 18.8265C14.8543 19.0223 15.2112 19.0568 15.5131 18.9071C15.8112 18.7613 15.9994 18.4619 15.9994 18.1357V2.75969C15.9994 1.23591 14.7367 0 13.1799 0H2.8195C1.2627 0 0 1.23591 0 2.75969ZM1.76464 2.75969C1.76464 2.19163 2.23913 1.72721 2.8195 1.72721H13.1838C13.7642 1.72721 14.2387 2.19163 14.2387 2.75969V16.4085L8.52908 12.2209C8.37223 12.1058 8.184 12.0482 7.99969 12.0482C7.81538 12.0482 7.62716 12.1058 7.4703 12.2209L1.76464 16.4085V2.75969Z" fill="#373737"/>
</svg>
