<svg width="31" height="30" viewBox="0 0 31 30" fill="none" xmlns="http://www.w3.org/2000/svg">
<path d="M12.688 24.5574C15.6063 24.5574 18.2867 23.5877 20.4285 21.9816L28.6137 29.6179C28.8893 29.8725 29.24 29.9998 29.5907 29.9998C29.9602 29.9998 30.3297 29.8604 30.6052 29.5816C31.1438 29.0422 31.1313 28.1755 30.5676 27.6543L22.4639 20.0908C24.28 17.9635 25.376 15.2423 25.376 12.2726C25.376 5.50905 19.6833 0 12.688 0C5.69268 0 0 5.50905 0 12.2787C0 19.0483 5.69268 24.5574 12.688 24.5574ZM12.688 2.72725C18.1302 2.72725 22.5578 7.01207 22.5578 12.2787C22.5578 17.5453 18.1302 21.8301 12.688 21.8301C7.2458 21.8301 2.81816 17.5453 2.81816 12.2787C2.81816 7.01207 7.2458 2.72725 12.688 2.72725Z" fill="#FB5954"/>
</svg>
