<svg width="20" height="18" viewBox="0 0 20 18" fill="none" xmlns="http://www.w3.org/2000/svg">
<path d="M2.65864 18H14.8557C15.8864 18 16.8353 17.373 17.2689 16.4029L19.7516 10.8533C20.1361 9.99756 20.0707 9.0105 19.5798 8.21406C19.089 7.41763 18.2505 6.94316 17.3384 6.94316H14.2339C14.4507 6.10013 14.5898 5.26981 14.6389 4.46491C14.7575 2.6221 13.9681 1.12244 12.4179 0.241282C11.8739 -0.0679701 11.2154 -0.0806791 10.6591 0.207392C10.0987 0.495462 9.71016 1.05466 9.62018 1.69435L8.88803 6.94316H2.65864C1.19434 6.94316 0 8.18017 0 9.69678V15.2464C0 16.763 1.19434 18 2.65864 18ZM1.8406 9.69678C1.8406 9.23078 2.20871 8.84951 2.65864 8.84951H9.68971C10.1478 8.84951 10.5364 8.50214 10.6018 8.0319L11.4485 1.96547C11.4485 1.957 11.4526 1.92734 11.4853 1.9104C11.5139 1.89769 11.5262 1.90616 11.5385 1.9104C12.4506 2.42723 12.8801 3.24484 12.8065 4.33358C12.741 5.36301 12.5079 6.45175 12.1193 7.56591C12.017 7.85821 12.0579 8.18441 12.2297 8.43859C12.4015 8.69277 12.6837 8.84528 12.9823 8.84528H17.3425C17.7474 8.84528 17.9601 9.12064 18.0337 9.23502C18.1074 9.35364 18.2546 9.66713 18.0869 10.0484L15.6042 15.598C15.4692 15.8945 15.1788 16.0894 14.8638 16.0894H7.7305V10.0569C7.7305 9.53156 7.31739 9.1037 6.8102 9.1037C6.30302 9.1037 5.88991 9.53156 5.88991 10.0569V16.0936H2.65864C2.20871 16.0936 1.8406 15.7124 1.8406 15.2464V9.69678Z" fill="#373737"/>
</svg>
