<svg width="20" height="19" viewBox="0 0 20 19" fill="none" xmlns="http://www.w3.org/2000/svg">
<path d="M0.573862 8.14542L8.34453 11.074L11.4278 18.455C11.5651 18.7851 11.9005 19 12.2723 19C12.2763 19 12.2763 19 12.2804 19C12.6562 18.9962 12.9916 18.7735 13.1209 18.4396L19.942 1.16747C20.0672 0.848894 19.9864 0.491936 19.7318 0.253964C19.4772 0.0159925 19.1014 -0.0646108 18.7701 0.0543751L0.585985 6.53335C0.238466 6.65617 0.00409324 6.97475 5.23285e-05 7.33171C-0.00398858 7.68866 0.226343 8.01108 0.573862 8.14542ZM17.5376 2.33814L12.2481 15.7336L10.1104 10.6173L14.1675 6.76364C14.5231 6.42588 14.5231 5.88085 14.1675 5.54308C13.8119 5.20531 13.2381 5.20531 12.8825 5.54308L8.82136 9.39285L3.43483 7.36241L17.5376 2.33814Z" fill="#373737"/>
</svg>
