<svg width="107" height="67" viewBox="0 0 107 67" fill="none" xmlns="http://www.w3.org/2000/svg">
<path d="M102.636 29.694C102.272 29.4753 102.26 29.1351 102.636 28.9164C86.0874 38.5511 69.5393 48.198 52.9911 57.8328C53.3669 57.6141 53.9609 57.6141 54.3368 57.8328C37.6673 48.198 21.01 38.5511 4.36487 28.9164C4.74069 29.1351 4.74069 29.4753 4.36487 29.694C20.9131 20.0592 37.4612 10.4245 54.0094 0.777588C53.6336 0.996283 53.0517 0.996283 52.6759 0.777588C69.321 10.4245 85.9783 20.0592 102.636 29.694Z" fill="white"/>
<path d="M52.2152 0.182316C52.2031 0.182316 52.2031 0.182316 52.2031 0.194466L52.288 0.170166L52.2152 0.182316Z" fill="white"/>
<path d="M106.999 32.6828V32.6707C106.999 32.6707 106.999 32.6828 106.999 32.6828C106.999 32.5856 106.987 32.4641 106.987 32.3669L106.951 32.051V32.0389C106.951 32.0267 106.951 32.0146 106.951 32.0146C106.951 32.0267 106.951 32.0267 106.951 32.0389C106.939 31.9781 106.927 31.9174 106.902 31.8445C106.902 31.8202 106.89 31.808 106.89 31.7959C106.89 31.7837 106.878 31.7594 106.878 31.7473C106.878 31.723 106.866 31.7108 106.866 31.6865C106.854 31.6501 106.842 31.6136 106.842 31.5772V31.565L106.793 31.4435L106.745 31.2977C106.745 31.3099 106.745 31.3099 106.757 31.322L106.745 31.2856C106.696 31.1762 106.636 31.0426 106.563 30.9211C106.551 30.8968 106.539 30.8725 106.527 30.8482C106.515 30.836 106.515 30.8118 106.502 30.7996L106.345 30.5445L106.272 30.4473L106.151 30.2893C106.139 30.2772 106.127 30.2529 106.114 30.2407L106.102 30.2286C106.017 30.1314 105.896 30.0099 105.811 29.9248L105.605 29.7547C105.52 29.694 105.411 29.6089 105.326 29.5482C105.266 29.5117 105.193 29.4631 105.12 29.4267L105.132 29.4388C105.12 29.4388 105.12 29.4267 105.108 29.4267L102.611 27.9809L100.732 26.8995C100.247 26.6201 99.7619 26.3406 99.277 26.0612L97.604 25.1014L95.1066 23.6556L92.6092 22.2097L90.1118 20.7639L87.6144 19.3181L85.1171 17.8723L82.6197 16.4265L80.1223 14.9806L77.6249 13.5348L75.1275 12.089L72.6665 10.6675C72.6544 10.6553 72.6423 10.6553 72.6302 10.6432L70.1328 9.19736L67.9506 7.93378C67.5627 7.71509 67.1747 7.48424 66.7989 7.26555L65.138 6.30572L63.8651 5.55243C62.8952 4.99354 61.9132 4.42251 60.9434 3.86362L60.1069 3.37763L57.6095 1.93181L55.1121 0.48599C55.1 0.48599 55.1 0.47384 55.0879 0.47384H55.0757C55.003 0.437391 54.9303 0.388792 54.8575 0.364492L54.6636 0.279444C54.6151 0.255145 54.5423 0.230845 54.4938 0.218695H54.5302L54.4696 0.194396L54.2877 0.133647C54.2877 0.133647 54.2756 0.133647 54.2635 0.133647C54.2392 0.121497 54.2271 0.121497 54.2029 0.121497C54.1665 0.109348 54.1423 0.109348 54.1059 0.097198L53.9362 0.0607487H53.9483C53.9362 0.0607487 53.9119 0.0607487 53.8998 0.048599C53.8513 0.0364492 53.8149 0.0364492 53.7786 0.0242995L53.621 0.0121497C53.5725 0.0121497 53.5118 0.0121497 53.4634 0H53.3906C53.3785 0 53.3664 0 53.3542 0C53.3542 0 53.3421 0 53.3179 0C53.2694 0 53.2209 0 53.1724 0L53.0148 0.0121497C52.9784 0.0121497 52.9299 0.0242995 52.8936 0.0242995H52.9057H52.8572L52.7117 0.048599C52.7117 0.048599 52.7117 0.048599 52.6996 0.048599C52.6511 0.0607487 52.5784 0.0728985 52.5299 0.0850482L52.3601 0.133647C52.3117 0.145797 52.251 0.170096 52.1904 0.182246C52.1904 0.182246 52.1904 0.182246 52.2025 0.182246L52.1541 0.194396L51.9601 0.267294C51.8631 0.315893 51.8146 0.328043 51.7297 0.376642C51.7297 0.376642 51.7176 0.376642 51.7176 0.388792L51.5115 0.49814C49.984 1.38507 48.4686 2.272 46.9411 3.15893L46.541 3.38978L46.0682 3.66922C41.5826 6.28142 37.0849 8.90576 32.5993 11.518L31.6537 12.0647L30.6596 12.6479C29.6897 13.2068 28.7199 13.7778 27.75 14.3488L26.6832 14.9685L24.2222 16.4022L23.7251 16.6937C22.4279 17.447 21.1429 18.2003 19.8457 18.9536L19.2638 19.2938L16.7785 20.7396L11.8201 23.6313L6.86174 26.5229L4.37648 27.9687L1.8791 29.4024C1.63663 29.5482 1.60026 29.5846 1.33355 29.779L1.13958 29.9613C1.12746 29.9734 1.11534 29.9856 1.11534 29.9977C1.09109 30.022 1.07897 30.0342 1.05472 30.0585C0.969857 30.1435 0.884994 30.2286 0.824378 30.3136L0.654653 30.5445C0.618284 30.5931 0.594037 30.6538 0.557668 30.7024C0.545544 30.7146 0.533421 30.7267 0.533421 30.7389C0.533421 30.751 0.521298 30.7632 0.521298 30.7753C0.521298 30.7875 0.509175 30.7996 0.509175 30.8118C0.460682 30.8847 0.424312 30.9454 0.387943 31.0061L0.266711 31.2856C0.218218 31.4314 0.145479 31.6258 0.109109 31.7716C0.109109 31.7837 0.109109 31.808 0.0969857 31.8202L0.0484928 32.0753L0.0121232 32.3669C0.0121232 32.4641 0 32.5856 0 32.6828C0 32.9623 0 33.2538 0 33.5333C0 33.6548 0.0121232 33.7884 0.0242464 33.9221C0.0242464 33.9342 0.0242464 33.9464 0.0242464 33.9585C0.0242464 33.995 0.0242464 34.0193 0.0363696 34.0557L0.0969857 34.3595C0.0969857 34.3716 0.0969857 34.3838 0.109109 34.3959C0.109109 34.4202 0.121232 34.4324 0.133355 34.4567C0.145479 34.481 0.145479 34.5053 0.157602 34.5417C0.193971 34.6511 0.230341 34.7726 0.254587 34.8576L0.266711 34.8819C0.266711 34.8941 0.278834 34.9184 0.290957 34.9305L0.37582 35.1371C0.412189 35.2221 0.472805 35.3193 0.521298 35.4044C0.521298 35.4165 0.533421 35.4165 0.533421 35.4287V35.4408L0.691023 35.6959L0.763762 35.7931L0.884994 35.9389C0.897118 35.9632 0.921364 35.9754 0.933487 35.9997L0.94561 36.0118C1.03047 36.109 1.1517 36.2305 1.23657 36.3156L1.28506 36.3642C1.29718 36.3642 1.30931 36.3763 1.30931 36.3885L1.44266 36.4978C1.52752 36.5586 1.63663 36.6436 1.7215 36.7044C1.78211 36.7408 1.86697 36.7894 1.92759 36.8259C4.0734 38.0651 6.20708 39.3044 8.35289 40.5437L9.41973 41.1633L10.0986 41.5521C13.7962 43.6905 17.4938 45.8288 21.1914 47.9672L21.9066 48.3803L22.3673 48.6354C26.2589 50.8831 30.1504 53.143 34.042 55.3907L34.4057 55.5972L34.636 55.7309C38.7215 58.1001 42.8192 60.4571 46.9047 62.8263L51.8995 65.718C51.9722 65.7544 52.0692 65.8152 52.1419 65.8516L52.3359 65.9367C52.348 65.9367 52.3601 65.9488 52.3723 65.9488C52.3965 65.961 52.4086 65.961 52.4329 65.9731C52.4693 65.9853 52.4935 65.9974 52.5299 66.0096L52.7117 66.0703C52.7117 66.0703 52.7117 66.0703 52.7238 66.0703H52.736C52.7602 66.0703 52.7723 66.0825 52.7966 66.0825C52.833 66.0946 52.8693 66.0946 52.8936 66.1068L53.0633 66.1432C53.1118 66.1554 53.1724 66.1554 53.2209 66.1675L53.3785 66.1797C53.427 66.1918 53.4876 66.1918 53.524 66.1918H53.6331C53.6452 66.1918 53.6573 66.1918 53.6573 66.1918H53.6695C53.7179 66.1918 53.7786 66.1918 53.8149 66.1918L53.9725 66.1797C54.021 66.1675 54.0816 66.1675 54.1301 66.1675L54.2756 66.1432C54.2756 66.1432 54.2756 66.1432 54.2877 66.1432C54.3362 66.1311 54.409 66.1189 54.4575 66.1068L54.6272 66.0582C54.6878 66.0339 54.7727 66.0096 54.8333 65.9974L55.0151 65.9245C55.0879 65.8881 55.1849 65.8516 55.2576 65.8152C55.3182 65.7787 55.4031 65.7423 55.4637 65.7058L57.9368 64.26L60.1069 62.9964C61.4526 62.2067 62.7982 61.4291 64.1439 60.6394L65.3805 59.9104L67.8657 58.4646L70.351 57.0187L72.8362 55.5729C73.9637 54.9168 75.079 54.2608 76.2065 53.6168L77.8068 52.6813L79.2009 51.8673C81.0922 50.7616 82.9955 49.656 84.8989 48.5504L85.2504 48.3438L85.5656 48.1616C87.1174 47.2625 88.6692 46.3513 90.2209 45.4522C92.4274 44.1643 94.6338 42.8886 96.8402 41.6007L97.6646 41.1147L100.15 39.6689L105.12 36.7773C105.363 36.6315 105.399 36.6072 105.654 36.4006L105.702 36.3642C105.727 36.3399 105.751 36.3156 105.775 36.3034L105.86 36.2305C105.872 36.2184 105.896 36.1941 105.908 36.1819C105.92 36.1698 105.933 36.1576 105.933 36.1455C105.969 36.109 105.993 36.0726 106.03 36.0361C106.066 35.9997 106.102 35.9632 106.139 35.9146C106.151 35.9025 106.163 35.8903 106.163 35.8782L106.333 35.6473L106.454 35.453L106.478 35.4044C106.49 35.3922 106.49 35.3801 106.502 35.3679L106.539 35.295L106.587 35.2343C106.575 35.2464 106.563 35.2707 106.551 35.295L106.624 35.1492L106.733 34.8941V34.8698C106.745 34.8455 106.757 34.8212 106.769 34.7847L106.793 34.7361C106.793 34.7118 106.805 34.6875 106.818 34.6632L106.83 34.6268L106.842 34.5903C106.842 34.6025 106.83 34.6025 106.83 34.6146L106.902 34.3595L106.915 34.3352L106.963 34.0193C106.963 34.0436 106.951 34.0557 106.951 34.08C106.963 34.0071 106.975 33.9221 106.987 33.8613C106.987 33.7884 106.999 33.7155 106.999 33.6305C106.999 33.6183 106.999 33.594 106.999 33.5697C106.999 33.5576 106.999 33.5454 106.999 33.5333C106.999 33.266 106.999 32.9744 106.999 32.6828C106.999 32.695 106.999 32.695 106.999 32.6828ZM2.38827 29.2201C2.4004 29.2201 2.4004 29.2201 2.38827 29.2201C2.4004 29.2201 2.38827 29.2323 2.38827 29.2201C2.37615 29.2323 2.37615 29.2201 2.36403 29.2323C2.37615 29.2323 2.37615 29.2323 2.38827 29.2201ZM104.599 29.2323H104.611C104.599 29.2323 104.599 29.2323 104.599 29.2323C104.587 29.2323 104.587 29.2323 104.575 29.2323C104.575 29.2323 104.575 29.2323 104.587 29.2323C104.587 29.2201 104.587 29.2201 104.599 29.2323ZM2.99443 29.208H3.00656H2.99443C2.98231 29.208 2.98231 29.208 2.97019 29.208C2.97019 29.208 2.97019 29.208 2.98231 29.208C2.98231 29.208 2.98231 29.208 2.99443 29.208ZM53.33 0.46169C53.33 0.46169 53.3421 0.46169 53.33 0.46169C53.3421 0.46169 53.3542 0.449541 53.3542 0.449541C53.3542 0.46169 53.3421 0.46169 53.33 0.46169ZM52.5299 59.4365C52.5299 59.4244 52.542 59.4244 52.5541 59.4123C52.5056 59.473 52.4693 59.5337 52.4208 59.5945C52.445 59.5702 52.4571 59.5337 52.4814 59.5094C52.4814 59.4851 52.5056 59.4608 52.5299 59.4365ZM54.8333 59.473C54.809 59.4487 54.7969 59.4244 54.7727 59.4123C54.7848 59.4244 54.809 59.4487 54.8333 59.473ZM55.3425 60.2141C55.3667 60.2506 55.3788 60.2992 55.4031 60.3356C55.3546 60.2506 55.294 60.1534 55.2333 60.0562C55.2455 60.0805 55.2576 60.0926 55.2818 60.1169C55.294 60.1412 55.3182 60.1777 55.3425 60.2141ZM55.7183 60.9067C55.7304 60.9188 55.7304 60.931 55.7304 60.9431C55.7304 60.931 55.7304 60.931 55.7183 60.931C55.7062 60.9067 55.694 60.8702 55.6819 60.8459C55.694 60.8702 55.7062 60.8824 55.7183 60.9067C55.7183 60.9067 55.7183 60.8945 55.7183 60.9067ZM55.6577 60.7852C55.6577 60.7852 55.6577 60.7973 55.6698 60.7973C55.6577 60.7973 55.6577 60.7973 55.6577 60.7852ZM54.9424 59.6431C54.9545 59.6431 54.9545 59.6552 54.9424 59.6431C54.9545 59.6431 54.9545 59.6431 54.9424 59.6431ZM54.8696 59.5337C54.8454 59.5094 54.8333 59.4851 54.8212 59.4608H54.8333C54.8575 59.4973 54.8818 59.5337 54.906 59.558C54.8939 59.5702 54.8818 59.558 54.8696 59.5337ZM56.0092 61.6357C55.9971 61.6235 55.9971 61.5992 55.985 61.5871C55.9971 61.5992 56.0092 61.6235 56.0092 61.6357ZM56.0335 61.6843C56.0335 61.6721 56.0214 61.66 56.0214 61.6357C56.0214 61.66 56.0214 61.6843 56.0335 61.6843C56.0335 61.6964 56.0335 61.6964 56.0335 61.6843ZM54.2635 58.8291C54.2514 58.8169 54.2514 58.8169 54.2392 58.8048C54.2392 58.8169 54.2514 58.8291 54.2635 58.8291ZM52.0692 60.0805C52.0571 60.0926 52.0449 60.1048 52.0328 60.1291C52.0449 60.1048 52.0692 60.0805 52.0813 60.0683C52.0813 60.0683 52.0692 60.0683 52.0692 60.0805ZM56.2153 62.4132C56.2153 62.4011 56.2153 62.4011 56.2153 62.3889C56.2153 62.4011 56.2153 62.4132 56.2153 62.4132ZM53.0754 58.8169C53.0633 58.8291 53.039 58.8534 53.0269 58.8655L53.039 58.8534C53.0512 58.8291 53.0633 58.8291 53.0754 58.8169ZM3.21265 29.8155C3.2369 29.7912 3.26114 29.779 3.27327 29.7547C3.35813 29.6697 3.45512 29.5846 3.5521 29.4996C3.51573 29.5239 3.49148 29.5482 3.45511 29.5846C3.38238 29.6575 3.28539 29.7304 3.21265 29.8155ZM51.9964 60.1777C51.9843 60.1898 51.9843 60.202 51.9843 60.202C51.9843 60.2141 51.9722 60.2263 51.9722 60.2384C51.9722 60.2384 51.9722 60.2506 51.9601 60.2506C51.9722 60.2263 51.9843 60.202 51.9964 60.1898C51.9964 60.1777 51.9964 60.1777 51.9964 60.1777ZM53.6573 57.444L5.03113 29.3052L53.3421 1.16638L101.968 29.3052L53.6573 57.444ZM51.2933 61.66C51.2933 61.6478 51.2933 61.6478 51.3054 61.6478C51.3054 61.66 51.2933 61.6721 51.2933 61.6843C51.2933 61.6721 51.2933 61.6721 51.2933 61.66ZM56.2153 64.5516C56.2153 64.5394 56.2153 64.5273 56.2153 64.5151C56.2153 64.5273 56.2153 64.5394 56.2153 64.5516ZM104.575 29.2323C104.563 29.2323 104.563 29.2323 104.551 29.2323C104.563 29.2201 104.563 29.2201 104.575 29.2323C104.575 29.2323 104.575 29.2201 104.575 29.2323C104.575 29.2323 104.587 29.2323 104.575 29.2323Z" fill="#373737"/>
<path d="M105.121 29.4267L105.097 29.4146C105.133 29.4388 105.169 29.4632 105.206 29.4753C105.194 29.4632 105.157 29.4389 105.121 29.4267Z" fill="white"/>
<path d="M106.891 31.7959C106.891 31.8082 106.903 31.8206 106.903 31.8452C106.891 31.8206 106.891 31.8082 106.891 31.7959Z" fill="white"/>
<path d="M56.1432 33.9463L56.2038 45.1241H51.015L50.9423 33.9585C47.0871 33.6304 43.632 32.5855 41.0013 31.0547C37.7886 29.1958 35.7883 26.62 35.764 23.777C35.7277 18.103 43.6562 13.4983 53.4276 13.4983C58.3132 13.4983 62.7503 14.6525 65.9751 16.5114C69.1998 18.3703 71.2002 20.9461 71.2123 23.777C71.2487 28.9285 64.69 33.2173 56.1432 33.9463ZM53.5367 31.0547C60.4469 31.0547 66.0599 27.7864 66.0357 23.777C66.0236 21.7723 64.6052 19.9498 62.326 18.6376C60.0468 17.3255 56.919 16.5114 53.4639 16.5114C46.5537 16.5114 40.9528 19.7797 40.9649 23.7891C40.977 25.7938 42.3833 27.6163 44.6625 28.9285C46.9416 30.2285 50.0694 31.0547 53.5367 31.0547Z" fill="#373737"/>
</svg>
