<svg width="275" height="187" viewBox="0 0 275 187" fill="none" xmlns="http://www.w3.org/2000/svg">
<rect width="275" height="187" rx="11" fill="#FFDA7E"/>
<path opacity="0.7" d="M73.4599 89.1001L73.6999 174.87L191.04 107.13L190.8 21.3501L73.4599 89.1001Z" fill="#55DFFF"/>
<path d="M174.52 88.5L174.54 97.36L185.72 90.9L185.7 82.04L174.52 88.5Z" fill="#F2C557"/>
<path d="M163.05 43.5V45.31L185.56 32.31L185.55 30.51L163.05 43.5Z" fill="white"/>
<path d="M158.92 71.18V71.86C162.87 69.58 166.09 71.42 166.1 75.95C166.11 80.49 162.91 86.03 158.96 88.31V88.99C163.23 86.52 166.7 80.52 166.69 75.61C166.69 70.69 163.2 68.71 158.92 71.18Z" fill="white"/>
<path d="M178.17 60.07V60.75C182.11 58.47 185.34 60.31 185.35 64.84C185.36 69.38 182.16 74.92 178.22 77.19C174.27 79.47 171.06 77.64 171.04 73.1L170.45 73.44C170.46 78.35 173.95 80.34 178.22 77.87C182.49 75.4 185.96 69.41 185.94 64.5C185.93 59.59 182.44 57.6 178.17 60.07Z" fill="white"/>
<path d="M178.17 59.73C173.74 62.29 170.13 68.53 170.15 73.62L170.45 73.45L171.04 73.11L171.34 72.94C171.33 68.59 174.4 63.28 178.18 61.1V60.76V60.08L178.17 59.73Z" fill="#F2C557"/>
<path d="M170.98 57.71L170.99 59.51L185.61 51.06V49.26L170.98 57.71Z" fill="white"/>
<path d="M175.6 47.52V49.33L185.59 43.57V41.76L175.6 47.52Z" fill="white"/>
<path d="M169.68 47.18L169.69 48.99L185.58 39.81L185.57 38.01L169.68 47.18Z" fill="white"/>
<path d="M163.09 58.5L163.1 60.31L185.6 47.32L185.59 45.51L163.09 58.5Z" fill="white"/>
<path d="M153.17 67.9902L153.18 69.7902L168.46 60.9702L168.45 59.1602L153.17 67.9902Z" fill="white"/>
<path d="M153.16 64.23V66.04L160.57 61.77L160.56 59.96L153.16 64.23Z" fill="white"/>
<path d="M153.15 60.48V62.29L173.07 50.79V48.98L153.15 60.48Z" fill="white"/>
<path d="M153.14 56.7401V58.5401L167.16 50.4501L167.15 48.6401L153.14 56.7401Z" fill="white"/>
<path d="M153.13 52.9801V54.7901L177.62 40.6501V38.8401L153.13 52.9801Z" fill="white"/>
<path d="M145.69 105.14L145.72 114L156.89 107.55L156.87 98.6899L145.69 105.14Z" fill="#F2C557"/>
<path d="M139.68 81.95C135.24 84.51 131.64 90.74 131.66 95.84C131.67 100.94 135.29 103 139.73 100.44C144.17 97.88 147.77 91.65 147.75 86.55L147.45 86.72L146.86 87.06L146.56 87.23C146.57 91.58 143.51 96.89 139.73 99.07C135.95 101.25 132.86 99.49 132.85 95.15C132.84 90.8 135.9 85.49 139.69 83.31V82.97V82.29V81.95H139.68Z" fill="#F2C557"/>
<path d="M116.76 85.25V87.06L124.16 82.79V80.98L116.76 85.25Z" fill="white"/>
<path d="M116.77 88.9999V90.7999L132.05 81.9899V80.1799L116.77 88.9999Z" fill="white"/>
<path d="M139.68 82.29V82.97C143.62 80.69 146.85 82.53 146.86 87.06L147.45 86.72C147.44 81.81 143.96 79.82 139.68 82.29Z" fill="white"/>
<path d="M134.57 78.72L134.58 80.53L149.2 72.08V70.28L134.57 78.72Z" fill="white"/>
<path d="M139.19 68.54V70.35L149.18 64.58V62.77L139.19 68.54Z" fill="white"/>
<path d="M143.74 58.4L143.75 60.21L149.16 57.08V55.28L143.74 58.4Z" fill="white"/>
<path d="M133.28 68.2V70.01L149.17 60.83V59.03L133.28 68.2Z" fill="white"/>
<path d="M126.69 79.52V81.33L149.2 68.33L149.19 66.53L126.69 79.52Z" fill="white"/>
<path d="M126.65 64.52V66.32L149.15 53.33V51.52L126.65 64.52Z" fill="white"/>
<path d="M116.75 81.5V83.31L136.67 71.81L136.66 70L116.75 81.5Z" fill="white"/>
<path d="M116.74 77.7502V79.5502L130.75 71.4702V69.6602L116.74 77.7502Z" fill="white"/>
<path d="M116.72 70.25V72.06L124.12 67.78L124.11 65.98L116.72 70.25Z" fill="white"/>
<path d="M116.86 121.79L116.89 130.64L128.07 124.19L128.04 115.33L116.86 121.79Z" fill="#F2C557"/>
<path d="M120.44 93.06C116.01 95.62 112.41 101.86 112.42 106.95C112.43 112.05 116.06 114.11 120.49 111.55C122.82 110.21 125.03 107.77 126.55 104.87C127.82 102.45 128.52 99.89 128.51 97.66C128.5 94.15 126.79 91.96 124.05 91.95L123.91 92.34L123.65 93.1L123.52 93.48C125.86 93.49 127.31 95.34 127.32 98.34C127.33 100.25 126.73 102.43 125.65 104.49C124.35 106.97 122.47 109.04 120.48 110.19C116.7 112.37 113.62 110.61 113.6 106.26C113.59 101.91 116.65 96.61 120.43 94.42V94.08V93.4V93.06H120.44Z" fill="#F2C557"/>
<path d="M120.44 93.4001V94.0801C121.59 93.4101 122.69 93.1001 123.65 93.1001L123.91 92.3401C122.87 92.3401 121.69 92.6801 120.44 93.4001Z" fill="white"/>
<path d="M158.92 70.8401C154.49 73.4001 150.89 79.6301 150.91 84.7301C150.92 89.8301 154.54 91.8901 158.98 89.3401V89.0001V88.3201V87.9801C155.2 90.1601 152.11 88.4001 152.1 84.0601C152.09 79.7101 155.16 74.4001 158.93 72.2201V71.8801V71.2001V70.8401H158.92Z" fill="#F2C557"/>
<path d="M100.71 117.23L100.72 122.38L103.35 120.86L103.34 115.71L100.71 117.23Z" fill="#F2C557"/>
<path d="M99.92 131.56C96.68 133.43 96.73 151.61 93.49 153.48C90.25 155.36 90.21 140.92 86.96 142.79C83.71 144.66 83.7299 149.89 80.4799 151.76L80.52 164.83L112.95 146.11L112.91 133.04C109.67 134.91 109.69 140.14 106.44 142.01C103.2 143.88 103.16 129.69 99.92 131.56Z" fill="white"/>
<path d="M95.58 117.17L95.6 125.33L98.23 123.82L98.2 115.65L95.58 117.17Z" fill="#F2C557"/>
<path d="M90.45 117.1L90.48 128.29L93.1 126.78L93.07 115.59L90.45 117.1Z" fill="#F2C557"/>
<path d="M85.31 117.05L85.35 131.25L87.98 129.73L87.94 115.53L85.31 117.05Z" fill="#F2C557"/>
<path d="M80.18 116.99L80.23 134.21L82.86 132.69L82.81 115.47L80.18 116.99Z" fill="#F2C557"/>
<path d="M153.12 49.23V51.04L160.53 46.77L160.52 44.96L153.12 49.23Z" fill="white"/>
<path d="M180.14 37.39L180.15 39.19L185.57 36.06L185.56 34.26L180.14 37.39Z" fill="white"/>
<path d="M116.73 73.9999V75.7999L141.22 61.6699L141.21 59.8599L116.73 73.9999Z" fill="white"/>
<path d="M98.1699 99.74L98.1799 101.54L112.8 93.1V91.3L98.1699 99.74Z" fill="white"/>
<path d="M102.79 89.56L102.8 91.36L112.78 85.6L112.77 83.79L102.79 89.56Z" fill="white"/>
<path d="M107.34 79.42V81.22L112.76 78.1L112.75 76.3L107.34 79.42Z" fill="white"/>
<path d="M96.8699 89.22L96.8799 91.02L112.77 81.85L112.76 80.05L96.8699 89.22Z" fill="white"/>
<path d="M90.2799 100.54L90.2899 102.35L112.79 89.35L112.78 87.54L90.2799 100.54Z" fill="white"/>
<path d="M80.3599 110.02L80.3699 111.82L95.6499 103L95.6399 101.2L80.3599 110.02Z" fill="white"/>
<path d="M90.2399 85.53L90.2499 87.34L112.75 74.35L112.74 72.54L90.2399 85.53Z" fill="white"/>
<path d="M80.3399 102.52L80.3499 104.32L100.27 92.83L100.26 91.02L80.3399 102.52Z" fill="white"/>
<path d="M80.33 98.7702L80.34 100.57L94.35 92.4802V90.6802L80.33 98.7702Z" fill="white"/>
<path d="M80.3199 95.0199L80.3299 96.8199L104.81 82.6799V80.8799L80.3199 95.0199Z" fill="white"/>
<path d="M80.31 91.27V93.08L87.72 88.8L87.71 86.99L80.31 91.27Z" fill="white"/>
<path d="M80.36 106.27V108.08L87.76 103.8V102L80.36 106.27Z" fill="white"/>
<path d="M160.1 96.8201L160.13 105.68L171.31 99.2301L171.28 90.3701L160.1 96.8201Z" fill="#F2C557"/>
<path d="M131.27 113.46L131.3 122.32L142.48 115.87L142.45 107.01L131.27 113.46Z" fill="#F2C557"/>
<path d="M174.56 101.67L174.58 110.53L185.76 104.07L185.73 95.21L174.56 101.67Z" fill="#F2C557"/>
<path d="M160.14 109.99L160.16 118.85L171.34 112.4L171.32 103.54L160.14 109.99Z" fill="#F2C557"/>
<path d="M145.73 118.31L145.75 127.17L156.93 120.72L156.91 111.86L145.73 118.31Z" fill="#F2C557"/>
<path d="M131.31 126.64L131.34 135.49L142.52 129.04L142.49 120.18L131.31 126.64Z" fill="#F2C557"/>
<path d="M116.9 134.95L116.92 143.81L128.1 137.36L128.08 128.5L116.9 134.95Z" fill="#F2C557"/>
<path d="M78.03 78.35L80.64 76.84L94.2899 68.96L96.1 67.92L102.13 64.44L102.69 64.12L112.18 58.64L114.19 57.48L120.23 54L122.62 52.62L140.41 42.34L144.37 40.05L150.4 36.57L156.43 33.09L158.74 31.76L166.52 27.27L168.49 26.13L172.21 23.98L180.66 19.1L186.57 15.69L189.53 13.98L192.59 12.21C192.64 12.18 192.68 12.16 192.72 12.14C192.76 12.12 192.79 12.11 192.83 12.09C192.84 12.09 192.84 12.09 192.85 12.08C192.86 12.08 192.86 12.08 192.86 12.08C192.88 12.07 192.91 12.06 192.93 12.05C192.96 12.04 192.99 12.03 193.02 12.03C193.05 12.02 193.07 12.02 193.09 12.01C193.1 12.01 193.1 12.01 193.1 12.01H193.11C193.14 12 193.18 12 193.2 12C193.23 12 193.27 12 193.29 12C193.3 12 193.31 12 193.32 12C193.33 12 193.33 12 193.34 12C193.36 12 193.38 12.01 193.4 12.01C193.44 12.03 193.48 12.05 193.51 12.07L193.84 12.26C193.93 12.31 194 12.39 194.06 12.5C194.08 12.54 194.1 12.58 194.11 12.63C194.12 12.67 194.13 12.71 194.14 12.75C194.15 12.79 194.16 12.83 194.16 12.87C194.16 12.91 194.17 12.95 194.17 13C194.17 13.04 194.17 13.09 194.17 13.13V13.12V13.48V13.84V14.21V14.58V15.33V16.08V16.45C194.17 16.47 194.17 16.48 194.17 16.5V16.85V17.23V17.56C194.17 17.61 194.17 17.66 194.17 17.71V17.99V18.37V18.7C194.17 18.74 194.17 18.79 194.17 18.83V19.12V19.29C194.2 19.44 194.2 19.6 194.2 19.76V19.84V19.9C194.2 20.12 194.2 20.34 194.2 20.56L188.18 24.03L185.86 25.37C182 27.6 178.13 29.83 174.27 32.06L170.11 34.46L164.08 37.94L158.05 41.42L152.02 44.9L145.98 48.38L133.91 55.35L127.87 58.83L121.84 62.31L115.81 65.79L109.78 69.27L103.75 72.75L97.7199 76.23L91.6899 79.71L85.67 83.19L79.6499 86.67L73.63 90.14C74.44 89.68 75.4799 88.49 76.3699 86.95C76.3699 86.97 76.3699 84.28 76.3699 84.3C76.1499 84.17 75.92 84.04 75.68 83.91C75.61 83.87 75.5399 83.83 75.4699 83.79C75.2099 83.64 74.9499 83.49 74.6899 83.34C74.6399 83.31 74.5899 83.28 74.5399 83.25C74.4899 83.22 74.4499 83.2 74.3999 83.17C74.2599 83.09 74.1099 83 73.9699 82.92C73.9499 82.91 73.93 82.9 73.91 82.89C73.78 82.81 73.65 82.74 73.53 82.67C73.52 82.66 73.5 82.66 73.49 82.65C73.47 82.63 73.44 82.62 73.41 82.61C73.38 82.6 73.36 82.58 73.34 82.57C73.31 82.55 73.28 82.53 73.25 82.52C73.21 82.49 73.17 82.47 73.13 82.45C73.12 82.45 73.12 82.44 73.11 82.44C73.07 82.42 73.03 82.39 72.99 82.37C72.87 82.3 72.77 82.24 72.67 82.19L72.34 82C72.31 81.98 72.27 81.96 72.24 81.94C72.22 81.93 72.2 81.92 72.18 81.91C72.17 81.9 72.1599 81.9 72.1499 81.89C72.1399 81.89 72.13 81.88 72.13 81.87C72.13 81.87 72.1199 81.87 72.1199 81.86C72.0999 81.85 72.0899 81.84 72.0799 81.84C72.0799 81.84 72.07 81.83 72.06 81.83C72.05 81.83 72.0399 81.82 72.0399 81.82C72.0399 81.82 72.03 81.81 72.02 81.81C72.01 81.81 72.0099 81.81 72.0099 81.8H72L78.03 78.35ZM193.5 15.69C193.46 15.79 193.42 15.88 193.38 15.98C193.49 15.75 193.58 15.53 193.67 15.31C193.66 15.33 193.66 15.34 193.65 15.36C193.6 15.47 193.55 15.58 193.5 15.69ZM193.75 15.07C193.79 14.98 193.82 14.89 193.85 14.8C193.82 14.89 193.79 14.98 193.75 15.07ZM193.93 14.52C193.95 14.46 193.97 14.4 193.98 14.35C193.97 14.4 193.95 14.46 193.93 14.52ZM194.08 13.95C194.09 13.93 194.09 13.91 194.1 13.89C194.09 13.91 194.09 13.93 194.08 13.95ZM193.13 19.96C193.65 20.26 194 20.45 194.13 20.52C193.99 20.44 193.65 20.25 193.13 19.96ZM192.79 19.76L192.78 18.45C192.79 19.12 192.79 19.78 192.79 19.76ZM193.36 16.01C193.34 16.04 193.32 16.07 193.31 16.11C193.15 16.44 192.98 16.78 192.78 17.12C193 16.74 193.19 16.37 193.36 16.01Z" fill="#393971"/>
<path d="M72.0199 82.5401V82.5201C72.0199 82.2901 72.0199 82.0601 72.0199 81.8201C72.0199 81.8201 72.1099 81.8801 72.2699 81.9701C72.2899 81.9801 72.3199 82.0001 72.3499 82.0101C72.3599 82.0101 72.3599 82.0101 72.3599 82.0101L72.6899 82.2001C72.7599 82.2401 72.8399 82.2901 72.9299 82.3401C72.9899 82.3701 73.0599 82.4101 73.1199 82.4501C73.1999 82.4901 73.2699 82.5401 73.3599 82.5801C73.4099 82.6101 73.4699 82.6401 73.5199 82.6701C73.5899 82.7101 73.6499 82.7401 73.7199 82.7801C73.7899 82.8201 73.8699 82.8701 73.9399 82.9101C74.0199 82.9601 74.1199 83.0101 74.2099 83.0601C74.2299 83.0801 74.2599 83.0901 74.2899 83.1101C74.4299 83.2001 74.5899 83.2801 74.7499 83.3701C74.8199 83.4101 74.8899 83.4501 74.9599 83.4901C75.1499 83.6001 75.3499 83.7201 75.5499 83.8301C75.8399 84.0001 76.1199 84.1601 76.3899 84.3101V86.9601C76.2399 87.2201 76.0799 87.4701 75.9299 87.7101C75.8799 87.7801 75.8299 87.8501 75.7799 87.9301C75.7099 88.0301 75.6399 88.1501 75.5599 88.2501C75.5299 88.2901 75.4999 88.3201 75.4699 88.3601C75.3499 88.5201 75.2399 88.6601 75.1199 88.8001C75.0699 88.8601 75.0199 88.9301 74.9699 88.9901C74.9499 89.0101 74.9299 89.0301 74.8999 89.0601C74.8499 89.1201 74.7899 89.1801 74.7399 89.2301C74.6799 89.3001 74.6099 89.3701 74.5499 89.4401C74.4999 89.4901 74.4499 89.5401 74.3899 89.5801C74.3599 89.6101 74.3299 89.6401 74.2899 89.6701C74.2699 89.6901 74.2399 89.7201 74.2199 89.7401C74.1299 89.8201 74.0399 89.8901 73.9599 89.9501C73.9299 89.9701 73.9099 89.9901 73.8799 90.0001C73.8599 90.0101 73.8499 90.0301 73.8299 90.0401C73.7999 90.0601 73.7699 90.0801 73.7399 90.1001C73.6799 90.1401 73.6099 90.1801 73.5499 90.2101C73.5099 90.2301 73.4799 90.2401 73.4399 90.2601C73.4299 90.2701 73.4199 90.2701 73.3999 90.2801C73.3899 90.2801 73.3699 90.2901 73.3599 90.3001C73.2999 90.3201 73.2399 90.3401 73.1799 90.3601C73.1399 90.3701 73.1099 90.3601 73.0799 90.3701C73.0599 90.3701 73.0299 90.3701 73.0099 90.3701C72.9999 90.3701 72.9699 90.3701 72.9599 90.3701C72.8699 90.3601 72.7999 90.3401 72.7199 90.3001L72.3899 90.1101C72.3899 90.1101 72.3899 90.1001 72.3799 90.1001C72.3299 90.0701 72.2799 90.0301 72.2499 89.9801L72.2399 89.9701C72.2199 89.9401 72.1999 89.9101 72.1799 89.8701C72.1699 89.8501 72.1599 89.8201 72.1499 89.8001C72.1499 89.7901 72.1399 89.7801 72.1399 89.7801C72.1399 89.7701 72.1399 89.7701 72.1299 89.7601C72.1199 89.7201 72.1099 89.6801 72.0899 89.6301C72.0899 89.6101 72.0899 89.5901 72.0799 89.5701C72.0799 89.5501 72.0799 89.5401 72.0699 89.5301C72.0699 89.5101 72.0599 89.5001 72.0599 89.4801C72.0599 89.4201 72.0499 89.3601 72.0499 89.2901V89.1201V88.9001V88.6401V88.4501V88.1801V87.9201C72.0499 87.8301 72.0499 87.7401 72.0499 87.6401V87.4301V87.0601V86.7001C72.0499 86.6801 72.0499 86.6601 72.0499 86.6301V86.3001V86.1201C72.0499 85.9301 72.0499 85.7301 72.0499 85.5401V85.1601V84.9601C72.0499 84.7901 72.0499 84.6201 72.0499 84.4501V84.4001V84.3801C72.0499 84.0701 72.0499 83.7601 72.0499 83.4501V83.2801V83.1701C72.0499 82.9701 72.0499 82.7701 72.0499 82.5701V82.5401H72.0199Z" fill="#30305E"/>
<path d="M80.94 80.9199C80.28 81.2999 79.75 82.2199 79.75 82.9699C79.75 83.7299 80.29 84.0199 80.94 83.6499C81.6 83.2699 82.13 82.3599 82.12 81.5999C82.13 80.8499 81.59 80.5399 80.94 80.9199Z" fill="white"/>
<path d="M87.77 76.9801C87.12 77.3601 86.59 78.2801 86.59 79.0301C86.59 79.7801 87.13 80.0801 87.78 79.7101C88.43 79.3301 88.97 78.4201 88.97 77.6601C88.97 76.9001 88.43 76.6001 87.77 76.9801Z" fill="white"/>
<path d="M94.5999 73.03C93.9399 73.41 93.4099 74.33 93.4199 75.09C93.4199 75.84 93.9599 76.14 94.6099 75.76C95.2699 75.38 95.7999 74.47 95.7999 73.71C95.7999 72.96 95.2599 72.65 94.5999 73.03Z" fill="white"/>
</svg>
