<svg width="33" height="30" viewBox="0 0 33 30" fill="none" xmlns="http://www.w3.org/2000/svg">
<path d="M32.207 0.17458C31.7272 -0.076099 31.1341 -0.056816 30.6743 0.232429L21.4913 5.97234L12.3084 0.232429C12.295 0.226001 12.2817 0.226001 12.275 0.219574C12.1751 0.161725 12.0751 0.116731 11.9618 0.0845927C11.9285 0.0717374 11.9019 0.0653097 11.8685 0.058882C11.7552 0.020316 11.6286 0.001033 11.4954 0.001033C11.3621 0.001033 11.2355 0.020316 11.1155 0.0524544C11.0822 0.058882 11.0555 0.0717374 11.0222 0.078165C10.9089 0.110303 10.809 0.155297 10.709 0.213146C10.6957 0.219574 10.6824 0.219574 10.6757 0.226001L0.679725 6.4737C0.259895 6.74366 0 7.20002 0 7.69495V28.5527C0 29.0798 0.299879 29.5683 0.779685 29.8254C1.25949 30.0761 1.85258 30.0568 2.3124 29.7676L11.4954 24.0341L20.6783 29.7676C20.6916 29.774 20.705 29.774 20.7116 29.7804C20.8116 29.8383 20.9115 29.8833 21.0248 29.9154C21.0582 29.9283 21.0848 29.9347 21.1181 29.9411C21.2381 29.9733 21.3647 29.9925 21.498 29.9925C21.6313 29.9925 21.7579 29.9733 21.8778 29.9411C21.9111 29.9347 21.9378 29.9218 21.9711 29.9154C22.0777 29.8833 22.1844 29.8383 22.2843 29.7804C22.2977 29.774 22.311 29.774 22.3176 29.7676L32.3136 23.5199C32.7401 23.2499 33 22.7935 33 22.305V1.44726C32.9867 0.92019 32.6868 0.431687 32.207 0.17458ZM12.9947 4.10831L19.9919 8.47913V25.8917L12.9947 21.5209V4.10831ZM2.99879 8.47913L9.99596 4.10831V21.5209L2.99879 25.8917V8.47913ZM29.9879 21.5209L22.9907 25.8917V8.47913L29.9879 4.10831V21.5209Z" fill="#BDBDBD"/>
</svg>
