<svg width="31" height="30" viewBox="0 0 31 30" fill="none" xmlns="http://www.w3.org/2000/svg">
<path d="M12.688 24.5574C15.6064 24.5574 18.2868 23.5877 20.4286 21.9817L28.6138 29.618C28.8893 29.8726 29.24 29.9998 29.5907 29.9998C29.9602 29.9998 30.3297 29.8604 30.6053 29.5816C31.1439 29.0423 31.1313 28.1756 30.5677 27.6544L22.4639 20.0908C24.2801 17.9635 25.376 15.2423 25.376 12.2727C25.376 5.50906 19.6833 0 12.688 0C5.69269 0 0 5.50906 0 12.2787C0 19.0484 5.69269 24.5574 12.688 24.5574ZM12.688 2.72726C18.1302 2.72726 22.5578 7.01208 22.5578 12.2787C22.5578 17.5454 18.1302 21.8302 12.688 21.8302C7.24582 21.8302 2.81816 17.5454 2.81816 12.2787C2.81816 7.01208 7.24582 2.72726 12.688 2.72726Z" fill="#BDBDBD"/>
</svg>
