<svg width="19" height="17" viewBox="0 0 19 17" fill="none" xmlns="http://www.w3.org/2000/svg">
<path d="M2.52571 17H14.1129C15.0921 17 15.9935 16.4079 16.4054 15.4916L18.7641 10.2503C19.1293 9.44214 19.0671 8.50991 18.6009 7.75773C18.1346 7.00554 17.338 6.55743 16.4715 6.55743H13.5222C13.7282 5.76124 13.8603 4.97704 13.9069 4.21686C14.0196 2.47643 13.2697 1.06008 11.797 0.227878C11.2802 -0.064194 10.6546 -0.0761969 10.1261 0.19587C9.5938 0.467937 9.22466 0.996067 9.13917 1.60022L8.44363 6.55743H2.52571C1.13462 6.55743 0 7.72572 0 9.15807V14.3994C0 15.8317 1.13462 17 2.52571 17ZM1.74857 9.15807C1.74857 8.71796 2.09828 8.35788 2.52571 8.35788H9.20523C9.64043 8.35788 10.0096 8.02979 10.0717 7.58569L10.8761 1.85628C10.8761 1.84828 10.88 1.82027 10.9111 1.80427C10.9382 1.79226 10.9499 1.80026 10.9616 1.80427C11.8281 2.29239 12.2361 3.06457 12.1661 4.09283C12.104 5.06507 11.8825 6.09332 11.5133 7.14558C11.4162 7.42165 11.455 7.72972 11.6182 7.96978C11.7814 8.20984 12.0496 8.35387 12.3332 8.35387H16.4754C16.8601 8.35387 17.0621 8.61394 17.1321 8.72196C17.202 8.83399 17.3419 9.13006 17.1826 9.49015L14.824 14.7314C14.6957 15.0115 14.4198 15.1956 14.1206 15.1956H7.34398V9.49816C7.34398 9.00203 6.95152 8.59793 6.46969 8.59793C5.98787 8.59793 5.59541 9.00203 5.59541 9.49816V15.1996H2.52571C2.09828 15.1996 1.74857 14.8395 1.74857 14.3994V9.15807Z" fill="white"/>
</svg>
