<svg width="42" height="71" viewBox="0 0 42 71" fill="none" xmlns="http://www.w3.org/2000/svg">
<path d="M24.2149 2.8898C23.8432 1.85839 23.2392 1.12433 22.4308 0.678314C22.4587 0.696898 22.4773 0.696898 22.5051 0.715482L22.2264 0.548226C22.2078 0.538934 22.1985 0.529642 22.1799 0.52035C22.0591 0.446014 21.929 0.390263 21.7897 0.334511C21.7246 0.306635 21.6503 0.288051 21.5852 0.269467C21.5481 0.250883 21.5016 0.241591 21.4644 0.223007C21.4366 0.213715 21.4087 0.195131 21.3715 0.185839C21.2136 0.13938 21.0463 0.102212 20.879 0.0743357C20.8512 0.0650438 20.8233 0.0650438 20.7954 0.0650438C20.7397 0.0557518 20.6839 0.0557518 20.6282 0.0464598C20.5167 0.0371679 20.4145 0.0185839 20.3029 0.00929197C20.2007 0 20.0985 0 19.9963 0C19.9127 0 19.8291 0 19.7454 0C19.699 0 19.6525 0 19.5968 0C19.3645 0.00929197 19.1229 0.0371679 18.8627 0.0650438C18.8255 0.0650438 18.7884 0.0743357 18.7419 0.0836277C18.6769 0.0929197 18.6118 0.111504 18.5468 0.120796C18.3888 0.148671 18.2308 0.176547 18.0822 0.213715C18.0543 0.223007 18.0264 0.223007 17.9892 0.232299C17.9335 0.241591 17.887 0.269467 17.8406 0.278759C17.6547 0.334511 17.4689 0.399555 17.2924 0.464598C17.2459 0.483182 17.1994 0.492474 17.153 0.511058C17.1158 0.529642 17.0879 0.538934 17.0601 0.557518C16.7999 0.669022 16.5397 0.789817 16.2795 0.938489C15.9915 1.10574 15.7034 1.30088 15.434 1.51459C15.3503 1.57963 15.2574 1.66326 15.1738 1.72831C14.9879 1.88627 14.8021 2.04423 14.6163 2.21149C14.5791 2.24866 14.5512 2.26724 14.5141 2.30441C14.3933 2.4252 14.2725 2.55529 14.161 2.67609C14.1052 2.74113 14.0402 2.79688 13.9844 2.87122C13.9658 2.89909 13.9472 2.91768 13.938 2.93626C13.7893 3.11281 13.6313 3.28936 13.4826 3.48449C13.4362 3.54953 13.3804 3.61458 13.334 3.67962C13.2503 3.79112 13.1667 3.91192 13.0831 4.02342C13.0366 4.09776 12.9902 4.17209 12.9344 4.23714C12.888 4.30218 12.8415 4.37652 12.795 4.44156C12.7672 4.48802 12.7393 4.53448 12.7021 4.57165C12.6371 4.67386 12.572 4.78536 12.507 4.89687C12.4605 4.9712 12.4141 5.04554 12.3676 5.11987C12.3583 5.14775 12.3397 5.16633 12.3304 5.19421C12.2375 5.35217 12.1539 5.51943 12.061 5.67739C12.0331 5.72385 12.0052 5.7796 11.9773 5.82606C11.9773 5.83536 11.9681 5.83536 11.9681 5.84465C11.8937 5.98403 11.8287 6.1327 11.7543 6.27208C11.6986 6.38358 11.6428 6.48579 11.5871 6.60659C11.5871 6.61588 11.5778 6.62517 11.5778 6.62517C11.5406 6.7088 11.5035 6.79243 11.457 6.87606C11.3734 7.0619 11.2804 7.25703 11.1968 7.44287C11.1875 7.46145 11.1782 7.48003 11.1782 7.49862C11.1504 7.57295 11.1225 7.64729 11.0946 7.71233C11.0017 7.93534 10.9088 8.16764 10.8158 8.39994C10.7973 8.4464 10.7787 8.49286 10.7601 8.53932C10.7415 8.59507 10.7229 8.66011 10.7043 8.70657C10.5557 9.08754 10.4163 9.47781 10.2862 9.86807C10.2769 9.87736 10.2769 9.88665 10.2769 9.90524C10.2769 9.90524 10.2769 9.90524 10.2769 9.91453C10.0725 10.5278 9.88665 11.1411 9.7194 11.7636C9.7194 11.7729 9.71011 11.7915 9.71011 11.8101C9.71011 11.8287 9.70081 11.8473 9.70081 11.8658C9.45922 12.7579 9.23621 13.6592 9.05038 14.5512C9.05038 14.5605 9.04108 14.5791 9.04108 14.5884C9.03179 14.6441 9.0225 14.6999 9.00392 14.7649C8.93887 15.0809 8.87383 15.3968 8.81808 15.7034C8.77162 15.7963 8.75303 15.8893 8.73445 15.9822C8.6694 16.3446 8.60436 16.707 8.54861 17.0601C8.53003 17.1437 8.52073 17.2366 8.50215 17.3295C8.45569 17.6176 8.40923 17.8963 8.36277 18.1844C8.35348 18.2773 8.33489 18.3702 8.3256 18.4538C8.27914 18.7977 8.22339 19.1322 8.18622 19.4574C8.18622 19.4667 8.17693 19.4853 8.17693 19.5038C8.16764 19.5503 8.16764 19.5875 8.15835 19.6246C8.12118 19.9406 8.08401 20.2565 8.04684 20.5538C8.03755 20.6282 8.02826 20.6932 8.01897 20.7675C7.9818 21.0835 7.95392 21.3994 7.92605 21.6967C7.91676 21.7711 7.90746 21.8454 7.90746 21.929C7.87959 22.1985 7.85171 22.468 7.83313 22.7189C7.83313 22.7374 7.83313 22.7653 7.82384 22.7932C7.80525 23.0534 7.78667 23.3043 7.76808 23.5273C7.75879 23.5923 7.75879 23.6574 7.75879 23.7131C7.74021 23.9268 7.73092 24.1219 7.72162 24.3078C7.71233 24.3542 7.71233 24.3914 7.71233 24.4379C7.71233 24.5773 7.70304 24.7073 7.69375 24.8188C7.69375 24.8653 7.69375 24.9025 7.68446 24.9396C7.67517 25.0604 7.67516 25.1626 7.67516 25.2463C7.67516 25.2834 7.67516 25.2927 7.67516 25.3206C7.67516 25.3857 7.67516 25.4414 7.67516 25.4693L7.95392 25.6272L8.51144 25.3206C8.51144 25.1719 8.96675 10.8251 13.9194 4.19997C14.7278 3.1221 15.6105 2.30441 16.5676 1.75618C17.3109 1.31946 18.11 1.04999 18.937 0.938489C20.1357 0.780525 21.1299 0.901321 21.9105 1.29158C22.5795 1.70972 23.0812 2.36016 23.4065 3.2336C23.5273 3.55882 23.6109 3.92121 23.6759 4.29289C23.7038 4.41368 23.7131 4.53448 23.7224 4.65528C23.7596 4.92474 23.7874 5.19421 23.806 5.48226C23.8153 5.62164 23.8153 5.77031 23.8153 5.91898C23.8246 6.20703 23.8153 6.49509 23.806 6.79243C23.7967 6.93181 23.7967 7.07119 23.7874 7.21057C23.7596 7.57295 23.7224 7.94463 23.6759 8.31631C23.6666 8.38135 23.6666 8.45569 23.6573 8.53003C23.6295 8.73445 23.5923 8.92958 23.5644 9.134C23.5366 9.31984 23.5087 9.51497 23.4715 9.70081C23.4343 9.90524 23.3972 10.1097 23.3507 10.3048C23.3135 10.4906 23.2764 10.6765 23.2392 10.8623C23.1742 11.1782 23.0998 11.4849 23.0255 11.8008C23.0069 11.8751 22.9883 11.9588 22.9697 12.0331C22.8768 12.4234 22.7746 12.795 22.6724 13.1667C22.6724 13.176 22.6724 13.176 22.6724 13.176C22.5516 13.5756 22.4494 13.9565 22.3286 14.3189C22.2914 14.4304 22.2636 14.5326 22.2264 14.6441C22.1428 14.9043 22.0684 15.1552 21.9848 15.3782C21.9569 15.4804 21.9197 15.5826 21.8826 15.6848C21.8454 15.7871 21.8082 15.8986 21.7804 15.9915C21.7339 16.1123 21.6967 16.2238 21.6596 16.326C21.6317 16.4096 21.6038 16.5025 21.5759 16.5676C21.5388 16.6884 21.5016 16.7906 21.4644 16.8835C21.4459 16.93 21.4273 16.9857 21.4087 17.0229C21.3715 17.1437 21.3251 17.2366 21.2972 17.3016C21.2972 17.3202 21.2879 17.3295 21.2879 17.3481C21.2693 17.3853 21.2507 17.4317 21.2507 17.441L21.5295 17.599L22.0034 17.6547C22.1892 17.2831 25.9803 7.7495 24.2149 2.8898ZM23.0162 2.18361C22.9605 2.11857 22.8954 2.06282 22.8397 1.99777C22.8954 2.05352 22.9605 2.10928 23.0162 2.18361ZM23.3879 2.74113C23.3507 2.67609 23.3043 2.61104 23.2671 2.546C23.3043 2.61104 23.3507 2.67609 23.3879 2.74113ZM20.2844 0.167255C20.3308 0.167255 20.3587 0.176547 20.4052 0.176547C20.3494 0.176547 20.3029 0.167255 20.2472 0.167255C20.2565 0.167255 20.2658 0.167255 20.2844 0.167255ZM21.0649 0.223007C21.1392 0.232299 21.2136 0.260175 21.2879 0.269467C21.195 0.250883 21.1021 0.223007 21.0091 0.213715C21.0277 0.213715 21.0463 0.223007 21.0649 0.223007ZM21.7525 0.390263C21.7897 0.399555 21.8361 0.418139 21.8733 0.427431C21.9383 0.446014 21.9848 0.483182 22.0498 0.511058C21.9476 0.464598 21.8547 0.418139 21.7525 0.390263C21.7525 0.380971 21.7525 0.380971 21.7525 0.390263ZM22.5609 1.71901C22.4959 1.66326 22.4122 1.60751 22.3472 1.56105C22.4122 1.6168 22.4959 1.66326 22.5609 1.71901Z" fill="#454545"/>
<path d="M32.6798 14.895L32.5683 52.0907L30.8307 47.5934L30.9422 10.407L32.6798 14.895Z" fill="#CC7365"/>
<path d="M40.4386 15.8893L40.3364 53.085L32.5683 52.0908L32.6798 14.895L40.4386 15.8893Z" fill="#DA866C"/>
<path d="M30.9422 10.407L30.8307 47.5934L1.20786 64.8114L1.31937 27.6157L30.9422 10.407Z" fill="#DA866C"/>
<path d="M9.06887 28.61L8.96666 65.8057L1.20786 64.8115L1.31937 27.6157L9.06887 28.61Z" fill="#DA866C"/>
<path d="M8.56719 28.9074L8.45569 66.1032L0 65.016L0.102212 27.8203L8.56719 28.9074Z" fill="#DA866C"/>
<path d="M40.4387 15.8894L40.3365 53.0851L10.7137 70.2938L10.8252 33.1074L40.4387 15.8894Z" fill="#DA866C"/>
<path d="M10.8252 33.1073L10.7137 70.2938L8.96677 65.8058L9.06898 28.61L10.8252 33.1073Z" fill="#CC7365"/>
<path d="M33.1918 14.5977L41.6568 15.6941L10.4729 33.8135L8.56809 28.9166L0.1124 27.8294L31.2962 9.71009L33.1918 14.5977ZM10.826 33.1073L40.4395 15.8893L32.6715 14.8857L30.9431 10.407L1.32036 27.6157L9.06986 28.61L10.826 33.1073Z" fill="#EA9F79"/>
<path d="M41.6558 15.6848L41.5536 52.8806L10.3698 70.9999L10.472 33.8042L41.6558 15.6848Z" fill="#DA866C"/>
<path d="M10.472 33.8041L10.3698 70.9998L8.45566 66.103L8.56717 28.9072L10.472 33.8041Z" fill="#CC7365"/>
<path d="M37.4281 8.50205C37.0564 7.47065 36.4524 6.74587 35.644 6.29057C35.6626 6.29986 35.6905 6.30915 35.7183 6.31844L35.4396 6.16048C35.4303 6.15119 35.4117 6.1419 35.4024 6.1419L35.4396 6.16048L35.4024 6.1419C35.2723 6.06756 35.1515 6.01181 35.0121 5.94676C34.9471 5.91889 34.8728 5.9003 34.8077 5.87243C34.7613 5.85384 34.7241 5.84455 34.6869 5.82597C34.6498 5.81668 34.6219 5.79809 34.5847 5.7888C34.4268 5.74234 34.2595 5.70517 34.0922 5.6773C34.0644 5.66801 34.0272 5.66801 33.9993 5.66801C33.9436 5.65871 33.8878 5.65871 33.8321 5.64942C33.7299 5.64013 33.6276 5.62155 33.5068 5.61225C33.4139 5.60296 33.3117 5.61225 33.2095 5.61225C33.1259 5.61225 33.033 5.60296 32.9493 5.61225C32.9029 5.61225 32.8564 5.61225 32.8007 5.61225C32.5684 5.62155 32.3268 5.64013 32.0759 5.6773C32.0294 5.6773 31.9923 5.68659 31.9551 5.69588C31.8808 5.70517 31.8157 5.72376 31.7507 5.74234C31.602 5.77022 31.4533 5.79809 31.3046 5.83526C31.2768 5.84455 31.2396 5.84455 31.2117 5.85384C31.1653 5.86314 31.1188 5.89101 31.0631 5.9003C30.8772 5.95606 30.7007 6.01181 30.5148 6.08614C30.4684 6.10473 30.4219 6.11402 30.3755 6.1326C30.3476 6.1419 30.3197 6.16048 30.2825 6.17906C30.0224 6.29057 29.7622 6.41136 29.502 6.56003C29.214 6.72729 28.9259 6.92242 28.6564 7.13614C28.5635 7.20118 28.4799 7.28481 28.3963 7.34985C28.2104 7.50781 28.0246 7.65649 27.8387 7.83303C27.8016 7.8702 27.7737 7.88878 27.7365 7.92595C27.6157 8.03746 27.5042 8.16754 27.3927 8.28834C27.3184 8.36268 27.2534 8.42772 27.1883 8.50205C27.1697 8.52064 27.1511 8.53922 27.1418 8.54851C26.9932 8.72506 26.8352 8.9109 26.6865 9.09674C26.6401 9.16178 26.5843 9.22683 26.5379 9.29187C26.4542 9.40338 26.3706 9.51488 26.287 9.63568C26.2405 9.70072 26.1941 9.77505 26.1476 9.8401C26.0919 9.91443 26.0454 9.98877 25.9989 10.0631C25.9711 10.1003 25.9432 10.1467 25.9153 10.1932C25.8503 10.2954 25.7852 10.4069 25.7202 10.4998C25.6737 10.5835 25.618 10.6578 25.5715 10.7414C25.5622 10.76 25.5436 10.7786 25.5343 10.8065C25.4414 10.9644 25.3578 11.1224 25.2649 11.2896C25.237 11.3454 25.1998 11.3919 25.1812 11.4476C25.1812 11.4476 25.172 11.4569 25.172 11.4662C25.0976 11.6056 25.0233 11.7542 24.9489 11.8936C24.8932 12.0051 24.8374 12.1073 24.7817 12.2188C24.7817 12.2281 24.7817 12.2281 24.7724 12.2281C24.7352 12.2932 24.7074 12.3582 24.6888 12.4233C24.5866 12.637 24.4843 12.8507 24.3914 13.0644C24.3821 13.0737 24.3728 13.0923 24.3728 13.1016C24.3543 13.148 24.3357 13.1945 24.3171 13.241C24.2056 13.5011 24.1034 13.7706 23.9919 14.0308C23.9733 14.0679 23.9547 14.1051 23.9454 14.1516C23.9268 14.198 23.9082 14.2445 23.8897 14.3002C23.741 14.6998 23.5923 15.0994 23.4622 15.4989C23.4622 15.5082 23.4529 15.5082 23.4529 15.5175C23.2485 16.1308 23.0534 16.7533 22.8861 17.3852C22.8861 17.3945 22.8861 17.3945 22.8768 17.4038C22.8768 17.4131 22.8675 17.4223 22.8675 17.4316C22.6167 18.333 22.3937 19.2436 22.2078 20.1449C22.2078 20.1635 22.2078 20.1728 22.1985 20.1913C22.1892 20.2471 22.1706 20.3029 22.1614 20.3679C22.0963 20.6838 22.0313 20.9998 21.9755 21.3157C21.9569 21.3993 21.9383 21.4829 21.9291 21.5666C21.864 21.9382 21.7897 22.3099 21.7339 22.6723C21.7246 22.7466 21.7153 22.821 21.6968 22.886C21.641 23.1927 21.5945 23.5086 21.5481 23.8059C21.5388 23.8803 21.5295 23.9546 21.5202 24.0382C21.4645 24.3913 21.418 24.7444 21.3715 25.0882C21.3715 25.0975 21.3715 25.0975 21.3715 25.1068C21.3715 25.1254 21.3715 25.144 21.3622 25.1626C21.3158 25.5342 21.2693 25.8873 21.2322 26.2404C21.2229 26.2776 21.2229 26.3055 21.2229 26.3333C21.1857 26.6864 21.1485 27.0209 21.1207 27.3462C21.1207 27.3926 21.1114 27.4298 21.1114 27.4763C21.0556 28.1174 20.9999 28.7028 20.972 29.1953C20.972 29.2231 20.972 29.251 20.9627 29.2789C20.9441 29.5298 20.9348 29.7528 20.9162 29.9572C20.8884 30.3753 20.8791 30.6913 20.8698 30.8771C20.8698 30.8957 20.8698 30.8957 20.8698 30.9143C20.8698 30.9979 20.8698 31.063 20.8698 31.0815L21.1392 31.2395L21.706 30.9329C21.706 30.7935 22.1706 16.4374 27.114 9.81222C27.9131 8.74365 28.7958 7.92595 29.7622 7.36844C30.5055 6.941 31.3047 6.66225 32.1316 6.55074C33.3303 6.39278 34.3152 6.51357 35.1051 6.90384C35.7741 7.32198 36.2759 7.97241 36.5918 8.84586C36.7126 9.17108 36.7962 9.53346 36.8612 9.90514C36.8798 10.0259 36.8984 10.1467 36.9077 10.2768C36.9449 10.5463 36.9728 10.8158 36.9913 11.0945C37.0006 11.2432 37.0006 11.3919 37.0099 11.5405C37.0192 11.8193 37.0099 12.1073 37.0006 12.4047C36.9913 12.5534 36.9913 12.6834 36.982 12.8321C36.982 13.1945 36.9449 13.5662 36.8984 13.9379C36.8891 14.0122 36.8891 14.0772 36.8798 14.1423C36.852 14.3374 36.8241 14.5325 36.7869 14.7184C36.759 14.9228 36.7312 15.1179 36.694 15.3131C36.6568 15.4989 36.6197 15.6847 36.5825 15.8706C36.5453 16.075 36.5082 16.2794 36.4617 16.4746C36.3966 16.7812 36.3223 17.0785 36.2573 17.3666C36.2294 17.4595 36.2108 17.5524 36.1922 17.6361C36.0993 18.017 35.9971 18.3887 35.9042 18.7511C35.8856 18.8068 35.8763 18.8533 35.8577 18.8998C35.7555 19.2529 35.6626 19.5967 35.5604 19.9219C35.5232 20.0427 35.486 20.1449 35.4582 20.2564C35.3838 20.498 35.3095 20.7303 35.2351 20.944C35.1887 21.0834 35.1422 21.2135 35.1051 21.3436C35.0772 21.4179 35.0586 21.4922 35.0307 21.5573C34.975 21.7152 34.9192 21.8639 34.8728 22.0033C34.8542 22.0497 34.8356 22.1055 34.8263 22.152C34.6962 22.5051 34.594 22.7745 34.5383 22.9232C34.5383 22.9325 34.529 22.9325 34.529 22.9418C34.5104 23.0068 34.4918 23.044 34.4825 23.0533L34.7613 23.2112L35.2351 23.2763C35.4024 22.8953 39.1842 13.371 37.4281 8.50205ZM36.2201 7.79587C36.1643 7.72153 36.0993 7.66578 36.0436 7.61003C36.0993 7.67507 36.1643 7.73082 36.2201 7.79587ZM36.5918 8.36268C36.5546 8.29763 36.5082 8.23259 36.471 8.16754C36.5082 8.23259 36.5546 8.28834 36.5918 8.36268ZM33.4976 5.77951C33.544 5.77951 33.5719 5.7888 33.6183 5.7888C33.5719 5.7888 33.5161 5.77951 33.4697 5.77951C33.4697 5.77951 33.4883 5.77951 33.4976 5.77951ZM34.2781 5.83526C34.3524 5.84455 34.4268 5.87243 34.5011 5.88172C34.4082 5.86314 34.3152 5.83526 34.2223 5.82597C34.2409 5.83526 34.2595 5.83526 34.2781 5.83526ZM34.9657 5.99322C35.0121 6.00252 35.0493 6.0211 35.0865 6.03968C35.1515 6.05827 35.198 6.09544 35.263 6.11402C35.1608 6.07685 35.0679 6.03039 34.9657 5.99322ZM35.7648 7.34056C35.6905 7.28481 35.6161 7.22906 35.5418 7.1826C35.6161 7.22906 35.6998 7.27552 35.7648 7.34056Z" fill="#454545"/>
</svg>
