<svg width="19" height="18" viewBox="0 0 19 18" fill="none" xmlns="http://www.w3.org/2000/svg">
<path d="M17.3578 6.92587C17.0662 6.72955 16.5828 6.40598 16.5137 6.24601C16.4332 6.06423 16.5329 5.50434 16.5943 5.13714C16.7439 4.27914 16.9166 3.30479 16.2106 2.63583C15.5085 1.96688 14.4764 2.13048 13.5709 2.27227C13.1834 2.33407 12.5925 2.42496 12.4006 2.34862C12.2318 2.28318 11.8903 1.82145 11.6832 1.54878C11.169 0.858009 10.5283 0 9.49616 0C8.46405 0 7.8233 0.858009 7.30917 1.54878C7.10198 1.82509 6.7605 2.28318 6.59168 2.35225C6.39984 2.4286 5.8128 2.33407 5.42145 2.2759C4.51595 2.13411 3.48384 1.97051 2.7817 2.63947C2.07956 3.30479 2.24838 4.28277 2.39802 5.14078C2.46325 5.50798 2.55917 6.06787 2.47859 6.24965C2.40953 6.40961 1.92225 6.73319 1.63065 6.92951C0.905493 7.41305 0 8.0202 0 8.99818C0 9.97617 0.905493 10.5833 1.63449 11.0705C1.92609 11.2668 2.40953 11.5904 2.48243 11.7504C2.563 11.9321 2.46325 12.4884 2.40186 12.8592C2.25222 13.7172 2.07956 14.6916 2.78554 15.3605C3.48768 16.0259 4.51595 15.8659 5.42528 15.7241C5.8128 15.6623 6.39984 15.5714 6.59552 15.6477C6.76434 15.7132 7.10582 16.1749 7.313 16.4512C7.82714 17.142 8.47173 18 9.5 18C10.5321 18 11.1729 17.142 11.687 16.4512C11.8942 16.1749 12.2357 15.7168 12.4045 15.6477C12.5963 15.5714 13.1834 15.6659 13.5747 15.7277C14.4802 15.8695 15.5123 16.0331 16.2145 15.3642C16.9166 14.6988 16.7478 13.7209 16.5981 12.8629C16.5329 12.4957 16.437 11.9394 16.5176 11.754C16.5866 11.594 17.0739 11.2705 17.3655 11.0741C18.0945 10.587 19 9.97617 19 9.00182C18.9923 8.0202 18.0868 7.41305 17.3578 6.92587ZM16.3603 9.73622C15.7771 10.1252 15.1785 10.5288 14.9176 11.125C14.649 11.7394 14.7718 12.4448 14.8908 13.1283C14.9445 13.4409 15.0442 14.0081 14.9828 14.2008C14.7795 14.2589 14.204 14.168 13.8548 14.1135C13.1335 14.0008 12.3891 13.8845 11.7407 14.139C11.1115 14.3862 10.6856 14.957 10.275 15.506C10.064 15.7895 9.66882 16.3203 9.50767 16.3676C9.32351 16.3203 8.92831 15.7932 8.71729 15.506C8.30674 14.9533 7.88086 14.3862 7.25162 14.139C6.96385 14.0263 6.66074 13.9863 6.34612 13.9863C5.94709 13.9863 5.54039 14.0517 5.13752 14.1135C4.80755 14.1644 4.20901 14.2589 4.00565 14.2008C3.94426 14.0081 4.04402 13.4409 4.09774 13.1319C4.21668 12.4484 4.33946 11.7431 4.07088 11.1287C3.80998 10.5324 3.20759 10.1289 2.62823 9.73985C2.32896 9.53989 1.76878 9.16542 1.7189 9.01273C1.76878 8.83822 2.32512 8.46375 2.62823 8.26379C3.21143 7.87477 3.80998 7.47122 4.07088 6.87498C4.33946 6.26055 4.21668 5.55524 4.09774 4.87174C4.04402 4.55908 3.94426 3.99192 4.00565 3.80287C4.20901 3.7447 4.80755 3.83922 5.13368 3.89012C5.85117 4.00283 6.59935 4.11917 7.24778 3.86467C7.87702 3.61745 8.30291 3.04666 8.71345 2.49768C8.92447 2.2141 9.31967 1.6833 9.48082 1.63603C9.66498 1.6833 10.0602 2.21046 10.2712 2.49768C10.6817 3.05029 11.1076 3.61745 11.7369 3.86467C12.3853 4.11917 13.1296 4.00283 13.851 3.89012C14.1809 3.83922 14.7756 3.7447 14.979 3.80287C15.0404 3.99556 14.9406 4.56271 14.8869 4.87174C14.768 5.55524 14.6452 6.26055 14.9138 6.87498C15.1747 7.47122 15.7771 7.87477 16.3564 8.26379C16.648 8.46011 17.189 8.82367 17.2581 9.00182C17.1929 9.17633 16.6519 9.53989 16.3603 9.73622Z" fill="#333333"/>
<path d="M9.4961 5.32251C7.35899 5.32251 5.61707 6.96945 5.61707 8.99813C5.61707 11.0268 7.35515 12.6738 9.4961 12.6738C11.6371 12.6738 13.3751 11.0268 13.3751 8.99813C13.3751 6.96945 11.6332 5.32251 9.4961 5.32251ZM9.4961 11.0377C8.31052 11.0377 7.34364 10.1252 7.34364 8.99813C7.34364 7.87472 8.30669 6.95854 9.4961 6.95854C10.6817 6.95854 11.6486 7.87109 11.6486 8.99813C11.6486 10.1215 10.6817 11.0377 9.4961 11.0377Z" fill="#333333"/>
</svg>
