<svg width="18" height="18" viewBox="0 0 18 18" fill="none" xmlns="http://www.w3.org/2000/svg">
<path d="M7.36722 14.7345C9.06176 14.7345 10.6181 14.1527 11.8617 13.1891L16.6144 17.7709C16.7744 17.9236 16.9781 18 17.1817 18C17.3962 18 17.6108 17.9164 17.7708 17.7491C18.0835 17.4255 18.0762 16.9055 17.749 16.5927L13.0435 12.0545C14.0981 10.7782 14.7344 9.14545 14.7344 7.36364C14.7344 3.30545 11.429 0 7.36722 0C3.30543 0 0 3.30545 0 7.36727C0 11.4291 3.30543 14.7345 7.36722 14.7345ZM7.36722 1.63636C10.5272 1.63636 13.0981 4.20727 13.0981 7.36727C13.0981 10.5273 10.5272 13.0982 7.36722 13.0982C4.20724 13.0982 1.63635 10.5273 1.63635 7.36727C1.63635 4.20727 4.20724 1.63636 7.36722 1.63636Z" fill="#333333"/>
</svg>
