<svg width="59" height="69" viewBox="0 0 59 69" fill="none" xmlns="http://www.w3.org/2000/svg">
<g clip-path="url(#clip0_12_1068)">
<path d="M58.0774 32.5245L44.2767 24.519L43.377 25.0367L57.1777 33.0422L58.0774 32.5245Z" fill="#EFEFEF"/>
<path d="M31.4406 33.7121C31.4368 33.5979 31.4291 33.4837 31.4215 33.3733L45.2222 41.3826C45.2299 41.4891 45.2337 41.5995 45.2375 41.7099V41.7175C45.2413 41.8013 45.2413 41.8889 45.2413 41.9726C45.2413 42.0069 45.2451 42.0411 45.2451 42.0792C45.2451 42.0868 45.2451 42.0944 45.2451 42.0982L45.2718 51.8586L31.4711 43.8493L31.4444 34.089C31.4444 34.0242 31.4406 33.9671 31.4406 33.9062C31.4406 33.8415 31.4406 33.7768 31.4406 33.7121Z" fill="#AFAFA3"/>
<path d="M45.0391 40.0427L31.2384 32.0334L30.6932 32.3494L44.494 40.3549L45.0391 40.0427Z" fill="#EFEFEF"/>
<path d="M31.1127 31.5462C31.1051 31.5157 31.0974 31.4891 31.0898 31.4624C31.0479 31.3178 31.0021 31.1807 30.9526 31.0475C30.9373 31.0018 30.9221 30.9599 30.903 30.9143C30.8878 30.8724 30.8725 30.8343 30.8573 30.7925C30.8382 30.743 30.8153 30.6973 30.7924 30.6478C30.7772 30.6097 30.7581 30.5679 30.7391 30.5336C30.7238 30.4993 30.7048 30.4651 30.6895 30.4308C30.659 30.3661 30.6285 30.3052 30.5942 30.2443C30.5751 30.21 30.5561 30.172 30.537 30.1377C30.5065 30.0806 30.4722 30.0273 30.4379 29.9702C30.4188 29.936 30.396 29.9017 30.3731 29.8674C30.3426 29.8256 30.3197 29.7837 30.2892 29.7456C30.2625 29.7075 30.2397 29.6733 30.2168 29.639C30.1863 29.5972 30.1558 29.5591 30.1253 29.521C30.0986 29.4868 30.0757 29.4525 30.0452 29.422C30.0147 29.384 29.9804 29.3459 29.9499 29.3078C29.9232 29.2774 29.8965 29.2469 29.8699 29.2165C29.8355 29.1822 29.8012 29.1442 29.7669 29.1099C29.7402 29.0794 29.7136 29.0528 29.6831 29.0262C29.6487 28.9919 29.6106 28.9576 29.5725 28.9272C29.542 28.9005 29.5191 28.8739 29.4886 28.851C29.4505 28.8168 29.4086 28.7863 29.3666 28.7521C29.3399 28.7292 29.3133 28.7064 29.2828 28.6874C29.237 28.6531 29.1874 28.6226 29.1417 28.5884C29.1188 28.5732 29.0921 28.5541 29.0693 28.5389C28.9968 28.4894 28.9244 28.4437 28.8481 28.4019L42.6489 36.4111C42.7251 36.4568 42.7976 36.5025 42.87 36.5482C42.8967 36.5634 42.9195 36.5824 42.9424 36.5977C42.992 36.6319 43.0377 36.6624 43.0835 36.6966C43.1102 36.7195 43.1369 36.7423 43.1674 36.7613C43.2055 36.7956 43.2474 36.8261 43.2893 36.8603C43.3198 36.887 43.3465 36.9098 43.3732 36.9364C43.4113 36.9707 43.4495 37.005 43.4838 37.0392C43.5143 37.0659 43.541 37.0925 43.5676 37.123C43.602 37.1572 43.6363 37.1915 43.6706 37.2334C43.7011 37.26 43.7278 37.2943 43.7506 37.3247C43.7811 37.3628 43.8155 37.3971 43.846 37.4351C43.8726 37.4656 43.8955 37.4998 43.9222 37.5341C43.9527 37.5722 43.9832 37.6102 44.0137 37.6521C44.0366 37.6864 44.0633 37.7244 44.0899 37.7587C44.1166 37.7968 44.1433 37.8386 44.17 37.8805C44.1776 37.8919 44.1852 37.9072 44.1967 37.9186C44.2081 37.9414 44.2234 37.9643 44.2348 37.9833C44.2653 38.0366 44.2996 38.0937 44.3339 38.1508C44.353 38.185 44.3721 38.2193 44.3911 38.2574C44.4254 38.3183 44.4559 38.383 44.4902 38.4439C44.5017 38.4667 44.5131 38.4896 44.5245 38.5086C44.5284 38.52 44.536 38.5315 44.5398 38.5429C44.555 38.5809 44.5741 38.619 44.5932 38.6571C44.616 38.7066 44.6389 38.7522 44.658 38.8055C44.6732 38.8436 44.6885 38.8855 44.7037 38.9235C44.719 38.9578 44.7304 38.9883 44.7457 39.0225C44.7457 39.0339 44.7533 39.0454 44.7571 39.0568C44.8067 39.19 44.8524 39.3309 44.8943 39.4717C44.8982 39.4793 44.8982 39.4907 44.902 39.4945C44.9096 39.5136 44.9134 39.5364 44.9172 39.5555C44.9477 39.6582 44.9744 39.7686 45.0011 39.879C45.0049 39.8981 45.0125 39.9209 45.0163 39.9399C45.024 39.9742 45.0316 40.0084 45.0392 40.0427L31.2385 32.0334C31.2271 31.9763 31.2118 31.923 31.2004 31.8697C31.1737 31.7594 31.1432 31.6528 31.1127 31.5462Z" fill="#AFAFA3"/>
<path d="M36.2936 37.0391L44.4978 41.8012L45.2488 42.239L45.4242 42.338L45.4204 40.8952L44.4978 40.3585L37.6355 36.3767C37.2047 36.5518 36.7663 36.7688 36.3203 37.0277C36.3088 37.0277 36.2974 37.0315 36.2936 37.0391Z" fill="#989284"/>
<path d="M30.6932 32.3494L30.697 33.7921L35.4129 36.5291L36.2936 37.0392C36.3012 37.0354 36.3088 37.0316 36.3165 37.024C36.7625 36.7651 37.2047 36.5481 37.6317 36.373L36.6596 35.8096L30.6932 32.3494Z" fill="#989284"/>
<path d="M28.1887 49.7573L14.3879 41.748L13.8428 42.0602L27.6435 50.0695L28.1887 49.7573Z" fill="#EFEFEF"/>
<path d="M15.5087 58.5127L1.70801 50.5034L1.73851 60.9946L15.5392 69.0001L15.5087 58.5127Z" fill="#AFAFA3"/>
<path d="M13.5568 59.6356L3.67517 53.9065L3.69423 59.8678L13.572 65.6006L13.5568 59.6356Z" fill="#989284"/>
<path d="M15.5087 57.0698L1.70797 49.0605L0.804443 49.5821L14.6052 57.5875L15.5087 57.0698Z" fill="#EFEFEF"/>
<path d="M15.4782 48.0176L1.67749 40.0083L1.70799 49.0606L15.5087 57.0699L15.4782 48.0176Z" fill="#AFAFA3"/>
<path d="M13.5262 49.1442L3.64844 43.4114L3.65987 47.9299L13.5377 53.6628L13.5262 49.1442Z" fill="#989284"/>
<path d="M57.1511 23.9936L43.3503 15.9844L1.67749 40.0084L15.4782 48.0176L57.1511 23.9936Z" fill="#EFEFEF"/>
<path d="M0.804443 49.5784L0.808256 51.0211L15.5125 59.5557L15.5278 59.5633V58.1206L14.6052 57.5876L0.804443 49.5784Z" fill="#989284"/>
<path d="M15.5278 59.5633L15.5126 59.5557L15.5393 69.0039L27.4719 62.1252L27.4452 52.3648C27.4452 52.1174 27.4529 51.87 27.4681 51.6187L28.1925 51.2038L28.1848 49.7611L27.6397 50.0732C28.4936 44.9875 32.0353 39.5058 36.2899 37.0429C36.2975 37.0391 36.3051 37.0353 36.3128 37.0277C36.7588 36.7688 37.201 36.5519 37.628 36.3768C41.2993 34.8807 44.2501 36.3806 45.0354 40.0426L44.4903 40.3585L45.4129 40.8953L45.4167 42.338L45.2413 42.239L45.2718 51.8624L57.2083 44.9837L57.1778 34.4924L58.0775 33.9709L58.0737 32.5282L57.174 33.0497L57.1473 24.0012L36.6559 35.8096L35.4092 36.5252L15.4783 48.0176L15.5049 57.0699L14.6052 57.5876L15.5278 58.1205V59.5633V59.5633Z" fill="#DFDDD0"/>
<path d="M15.055 46.4339L0 37.6975L0.385048 39.3154L15.44 48.0517L15.055 46.4339Z" fill="#989284"/>
<path d="M58.5273 21.3706L43.4723 12.6343L0 37.6975L15.055 46.4339L58.5273 21.3706Z" fill="#EFEFEF"/>
<path d="M15.0551 46.4338L15.4401 48.0517L58.1537 23.4262L58.5273 21.3706L15.0551 46.4338Z" fill="#BEB5A4"/>
<path d="M15.5087 42.7682L1.70801 34.7627L1.71182 37.1495L15.5125 45.1588L15.5087 42.7682Z" fill="#AFAFA3"/>
<path d="M57.1778 18.7442L43.377 10.7388L1.70801 34.7628L15.5087 42.7682L57.1778 18.7442Z" fill="#EFEFEF"/>
<path d="M15.5088 42.7681L15.5126 45.1587L57.1855 21.1347L57.1778 18.7441L15.5088 42.7681Z" fill="#DFDDD0"/>
<path d="M15.097 41.1695L0.0457764 32.4331L0.430824 34.0471L15.4858 42.7873L15.097 41.1695Z" fill="#989284"/>
<path d="M58.5731 16.1062L43.5181 7.36987L0.0457764 32.4331L15.097 41.1694L58.5731 16.1062Z" fill="#EFEFEF"/>
<path d="M15.0969 41.1694L15.4858 42.7873L58.1994 18.1618L58.573 16.1062L15.0969 41.1694Z" fill="#BEB5A4"/>
<path d="M15.5468 35.1129L1.74609 27.1074L1.76134 31.9229L15.5621 39.9321L15.5468 35.1129Z" fill="#AFAFA3"/>
<path d="M57.2197 11.089L43.4189 3.0835L1.74609 27.1075L15.5468 35.113L57.2197 11.089Z" fill="#EFEFEF"/>
<path d="M15.5469 35.1129L15.5621 39.9321L57.235 15.9081L57.2197 11.0889L15.5469 35.1129Z" fill="#DFDDD0"/>
<path d="M15.4782 33.3618L0.423171 24.6255L0.0495605 26.6811L15.1045 35.4136L15.4782 33.3618Z" fill="#DEDEDE"/>
<path d="M58.1918 8.73635L43.1368 0L0.423218 24.6255L15.4782 33.3618L58.1918 8.73635Z" fill="#EFEFEF"/>
<path d="M15.4781 33.3618L15.1045 35.4136L58.5806 10.3504L58.1917 8.73633L15.4781 33.3618Z" fill="#BEB5A4"/>
<path d="M56.259 15.6263L56.2475 12.6152L50.4871 15.9347L50.4947 18.9496L56.259 15.6263Z" fill="#989284"/>
<path d="M56.1674 15.573L56.2589 15.6263L56.2475 12.6152L56.156 12.6647L56.1674 15.573Z" fill="#757166"/>
<path d="M50.4946 18.8429V18.9495L56.2589 15.6263L56.1674 15.573L50.4946 18.8429Z" fill="#837E72"/>
<path d="M49.591 19.4673L49.5796 16.4524L43.8153 19.7756L43.8229 22.7905L49.591 19.4673Z" fill="#989284"/>
<path d="M49.4957 19.414L49.591 19.4673L49.5795 16.4524L49.488 16.5057L49.4957 19.414Z" fill="#757166"/>
<path d="M43.8229 22.684V22.7906L49.591 19.4674L49.4957 19.4141L43.8229 22.684Z" fill="#837E72"/>
<path d="M42.9195 23.3084L42.9119 20.2935L37.1476 23.6167L37.1552 26.6316L42.9195 23.3084Z" fill="#989284"/>
<path d="M42.8241 23.2551L42.9194 23.3083L42.9118 20.2935L42.8203 20.3468L42.8241 23.2551Z" fill="#757166"/>
<path d="M37.1552 26.5251V26.6317L42.9194 23.3084L42.8241 23.2551L37.1552 26.5251Z" fill="#837E72"/>
<path d="M36.2517 27.1493L36.2402 24.1382L30.476 27.4576L30.4874 30.4725L36.2517 27.1493Z" fill="#989284"/>
<path d="M36.1563 27.096L36.2516 27.1493L36.2402 24.1382L36.1487 24.1877L36.1563 27.096Z" fill="#757166"/>
<path d="M30.4835 30.3659L30.4873 30.4725L36.2516 27.1492L36.1563 27.0959L30.4835 30.3659Z" fill="#837E72"/>
<path d="M29.5801 30.9902L29.5725 27.9753L23.8082 31.3024L23.8159 34.3173L29.5801 30.9902Z" fill="#989284"/>
<path d="M29.4886 30.9369L29.5801 30.9902L29.5725 27.9753L29.481 28.0286L29.4886 30.9369Z" fill="#757166"/>
<path d="M23.8158 34.207V34.3174L29.5801 30.9903L29.4886 30.937L23.8158 34.207Z" fill="#837E72"/>
<path d="M22.9123 34.8311L22.9009 31.8162L17.1366 35.1394L17.148 38.1543L22.9123 34.8311Z" fill="#989284"/>
<path d="M22.8169 34.7778L22.9123 34.8311L22.9008 31.8162L22.8093 31.8695L22.8169 34.7778Z" fill="#757166"/>
<path d="M17.1442 38.0478L17.148 38.1544L22.9123 34.8311L22.8169 34.7778L17.1442 38.0478Z" fill="#837E72"/>
<path d="M24.7459 60.4121L24.7383 57.3972L18.9702 60.7205L18.9817 63.7353L24.7459 60.4121Z" fill="#989284"/>
<path d="M24.6506 60.355L24.7459 60.4121L24.7383 57.3972L24.6429 57.4505L24.6506 60.355Z" fill="#757166"/>
<path d="M18.9817 63.6287V63.7353L24.746 60.4121L24.6507 60.355L18.9817 63.6287Z" fill="#837E72"/>
<path d="M54.2726 43.3696L54.265 40.3547L48.5007 43.6818L48.5084 46.6929L54.2726 43.3696Z" fill="#989284"/>
<path d="M54.1811 43.3163L54.2726 43.3696L54.265 40.3547L54.1697 40.408L54.1811 43.3163Z" fill="#757166"/>
<path d="M48.5083 46.5863V46.6929L54.2726 43.3697L54.1811 43.3164L48.5083 46.5863Z" fill="#837E72"/>
<path d="M2.74878 31.6945L2.7564 28.9766L7.95646 31.9724L7.94883 34.6904L2.74878 31.6945Z" fill="#989284"/>
<path d="M2.83265 31.645L2.74878 31.6945L2.7564 28.9766L2.84028 29.026L2.83265 31.645Z" fill="#757166"/>
<path d="M7.94883 34.5952V34.6904L2.74878 31.6945L2.83265 31.645L7.94883 34.5952Z" fill="#837E72"/>
<path d="M8.76465 35.1585L8.77227 32.4368L13.9685 35.4364L13.9609 38.1544L8.76465 35.1585Z" fill="#989284"/>
<path d="M8.84852 35.1091L8.76465 35.1585L8.77227 32.4368L8.85614 32.4863L8.84852 35.1091Z" fill="#757166"/>
<path d="M13.9609 38.0593V38.1545L8.76465 35.1586L8.84852 35.1091L13.9609 38.0593Z" fill="#837E72"/>
<path d="M59 33.0612L58.0774 32.5244L44.4978 40.3586L45.4166 40.8915L59 33.0612Z" fill="#EFEFEF"/>
<path d="M59 34.5038L45.4166 42.3341V40.8914L59 33.061V34.5038Z" fill="#BEB5A4"/>
<path d="M29.1111 50.2902L28.1885 49.7534L14.6051 57.5876L15.5239 58.1205L29.1111 50.2902Z" fill="#EFEFEF"/>
<path d="M29.1112 51.7328L15.5239 59.5631V58.1204L29.1112 50.29V51.7328Z" fill="#BEB5A4"/>
<path d="M55.2143 31.9343L55.199 27.3777L43.03 34.3934C44.2881 34.9416 45.3213 35.8971 46.0494 37.1951L55.2143 31.9343Z" fill="#BEB5A4"/>
<path d="M25.9088 48.7599C26.351 46.7995 27.1211 44.82 28.1542 42.97L17.4415 49.1444L17.453 53.6135L25.9088 48.7599Z" fill="#BEB5A4"/>
</g>
<defs>
<clipPath id="clip0_12_1068">
<rect width="59" height="69" fill="white"/>
</clipPath>
</defs>
</svg>
