<svg width="16" height="19" viewBox="0 0 16 19" fill="none" xmlns="http://www.w3.org/2000/svg">
<path d="M3.46948 6.26681C1.55756 6.26681 0 7.71743 0 9.49808C0 11.2787 1.55756 12.7293 3.46948 12.7293C4.26474 12.7293 4.9982 12.4761 5.58331 12.0539L9.28354 14.6405C9.14345 14.9935 9.06103 15.3735 9.06103 15.7687C9.06103 17.5494 10.6186 19 12.5305 19C14.4424 19 16 17.5494 16 15.7687C16 13.9881 14.4424 12.5375 12.5305 12.5375C11.7147 12.5375 10.9688 12.8023 10.3755 13.2397L6.69997 10.6724C6.85243 10.3078 6.93896 9.91254 6.93896 9.49808C6.93896 9.08362 6.85243 8.68835 6.69997 8.32377L10.3714 5.75641C10.9647 6.1939 11.7105 6.4587 12.5264 6.4587C14.4383 6.4587 15.9959 5.00808 15.9959 3.22743C15.9959 1.44678 14.4383 0 12.5264 0C10.6145 0 9.05691 1.45062 9.05691 3.23127C9.05691 3.63038 9.13932 4.00646 9.27942 4.35952L5.57919 6.94607C4.99408 6.52393 4.26474 6.26681 3.46948 6.26681ZM1.85424 9.49808C1.85424 8.66916 2.57945 7.99374 3.46948 7.99374C4.35952 7.99374 5.08473 8.66916 5.08473 9.49808C5.08473 10.327 4.35952 11.0024 3.46948 11.0024C2.57945 11.0024 1.85424 10.327 1.85424 9.49808ZM14.1375 15.7649C14.1375 16.5938 13.4123 17.2692 12.5223 17.2692C11.6322 17.2692 10.907 16.5938 10.907 15.7649C10.907 14.936 11.6322 14.2606 12.5223 14.2606C13.4123 14.2606 14.1375 14.9398 14.1375 15.7649ZM12.5264 1.72692C13.4164 1.72692 14.1416 2.40234 14.1416 3.23127C14.1416 4.06019 13.4164 4.73561 12.5264 4.73561C11.6364 4.73561 10.9112 4.06019 10.9112 3.23127C10.9112 2.40234 11.6364 1.72692 12.5264 1.72692Z" fill="#373737"/>
</svg>
