<svg width="123" height="163" viewBox="0 0 123 163" fill="none" xmlns="http://www.w3.org/2000/svg">
<path opacity="0.7" d="M1.46121 77.1616L1.7014 163L119.135 95.206L118.895 9.35755L1.46121 77.1616Z" fill="#55DFFF"/>
<path d="M102.602 76.561L102.622 85.4281L113.811 78.963L113.791 70.0959L102.602 76.561Z" fill="#F2C557"/>
<path d="M91.1227 31.5251V33.3366L113.651 20.3262L113.641 18.5248L91.1227 31.5251Z" fill="white"/>
<path d="M86.9894 59.2272V59.9077C90.9425 57.6259 94.1651 59.4674 94.1751 64.001C94.1851 68.5446 90.9825 74.089 87.0294 76.3708V77.0514C91.3028 74.5794 94.7756 68.5746 94.7656 63.6607C94.7656 58.7368 91.2728 56.7552 86.9894 59.2272Z" fill="white"/>
<path d="M106.255 48.1084V48.7889C110.198 46.5071 113.43 48.3485 113.44 52.8822C113.45 57.4258 110.248 62.9702 106.305 65.242C102.352 67.5238 99.139 65.6924 99.119 61.1487L98.5285 61.489C98.5386 66.4029 102.031 68.3945 106.305 65.9226C110.578 63.4506 114.051 57.4558 114.031 52.5419C114.021 47.628 110.528 45.6364 106.255 48.1084Z" fill="white"/>
<path d="M106.255 47.768C101.821 50.3301 98.2083 56.5751 98.2283 61.6691L98.5286 61.499L99.119 61.1587L99.4193 60.9886C99.4093 56.6351 102.482 51.3209 106.265 49.1391V48.7989V48.1183L106.255 47.768Z" fill="#F2C557"/>
<path d="M99.059 45.7465L99.069 47.5479L113.701 39.0912V37.2897L99.059 45.7465Z" fill="white"/>
<path d="M103.683 35.5483V37.3598L113.681 31.5952V29.7837L103.683 35.5483Z" fill="white"/>
<path d="M97.7579 35.2081L97.7679 37.0195L113.671 27.8322L113.661 26.0308L97.7579 35.2081Z" fill="white"/>
<path d="M91.1627 46.5371L91.1727 48.3485L113.691 35.3482L113.681 33.5367L91.1627 46.5371Z" fill="white"/>
<path d="M81.2348 56.0346L81.2448 57.836L96.5369 49.009L96.5269 47.1975L81.2348 56.0346Z" fill="white"/>
<path d="M81.2248 52.2716V54.0831L88.6407 49.8097L88.6307 47.9982L81.2248 52.2716Z" fill="white"/>
<path d="M81.2148 48.5186V50.3301L101.151 38.8209V37.0095L81.2148 48.5186Z" fill="white"/>
<path d="M81.2047 44.7758V46.5773L95.2359 38.4808L95.2259 36.6694L81.2047 44.7758Z" fill="white"/>
<path d="M81.1948 41.0128V42.8242L105.704 28.6729V26.8615L81.1948 41.0128Z" fill="white"/>
<path d="M73.7488 93.2142L73.7788 102.081L84.9577 95.6261L84.9377 86.7591L73.7488 93.2142Z" fill="#F2C557"/>
<path d="M67.734 70.0057C63.2905 72.5678 59.6876 78.8027 59.7076 83.9068C59.7176 89.0109 63.3405 91.0725 67.7841 88.5105C72.2276 85.9484 75.8305 79.7135 75.8104 74.6094L75.5102 74.7795L74.9197 75.1198L74.6195 75.29C74.6295 79.6434 71.5671 84.9577 67.7841 87.1394C64.001 89.3211 60.9086 87.5597 60.8986 83.2163C60.8886 78.8628 63.951 73.5486 67.744 71.3668V71.0266V70.346V70.0057H67.734Z" fill="#F2C557"/>
<path d="M44.7957 73.3084V75.1198L52.2016 70.8464V69.035L44.7957 73.3084Z" fill="white"/>
<path d="M44.8058 77.0613V78.8628L60.0979 70.0457V68.2343L44.8058 77.0613Z" fill="white"/>
<path d="M67.734 70.346V71.0266C71.6771 68.7448 74.9097 70.5862 74.9197 75.1198L75.5102 74.7796C75.5002 69.8657 72.0174 67.8741 67.734 70.346Z" fill="white"/>
<path d="M62.6199 66.7732L62.6299 68.5847L77.2616 60.1279V58.3265L62.6199 66.7732Z" fill="white"/>
<path d="M67.2436 56.5851V58.3965L77.2415 52.622V50.8105L67.2436 56.5851Z" fill="white"/>
<path d="M71.7972 46.437L71.8073 48.2485L77.2216 45.116V43.3145L71.7972 46.437Z" fill="white"/>
<path d="M61.3289 56.2448V58.0563L77.2316 48.869V47.0675L61.3289 56.2448Z" fill="white"/>
<path d="M54.7336 67.5739V69.3853L77.2616 56.375L77.2516 54.5735L54.7336 67.5739Z" fill="white"/>
<path d="M54.6936 52.5619V54.3633L77.2115 41.363V39.5515L54.6936 52.5619Z" fill="white"/>
<path d="M44.7857 69.5554V71.3669L64.7216 59.8577L64.7116 58.0463L44.7857 69.5554Z" fill="white"/>
<path d="M44.7757 65.8026V67.604L58.7969 59.5176V57.7061L44.7757 65.8026Z" fill="white"/>
<path d="M44.7557 58.2964V60.1079L52.1616 55.8245L52.1516 54.023L44.7557 58.2964Z" fill="white"/>
<path d="M44.8958 109.878L44.9259 118.735L56.1148 112.28L56.0848 103.412L44.8958 109.878Z" fill="#F2C557"/>
<path d="M48.4787 81.1246C44.0451 83.6866 40.4423 89.9316 40.4523 95.0257C40.4623 100.13 44.0952 102.191 48.5287 99.6293C50.8606 98.2883 53.0723 95.8463 54.5935 92.944C55.8645 90.5221 56.5651 87.96 56.5551 85.7283C56.5451 82.2155 54.8337 80.0237 52.0915 80.0137L51.9514 80.404L51.6912 81.1646L51.5611 81.5449C53.903 81.5549 55.3541 83.4064 55.3641 86.4088C55.3742 88.3203 54.7737 90.5021 53.6928 92.5637C52.3918 95.0457 50.5103 97.1173 48.5187 98.2683C44.7357 100.45 41.6532 98.6886 41.6332 94.3351C41.6232 89.9817 44.6856 84.6774 48.4687 82.4857V82.1454V81.4649V81.1246H48.4787Z" fill="#F2C557"/>
<path d="M48.4787 81.465V82.1455C49.6296 81.475 50.7305 81.1648 51.6912 81.1648L51.9514 80.4042C50.9106 80.4042 49.7297 80.7444 48.4787 81.465Z" fill="white"/>
<path d="M86.9894 58.887C82.5558 61.4491 78.953 67.684 78.973 72.7881C78.983 77.8922 82.6059 79.9538 87.0494 77.4018V77.0615V76.3809V76.0407C83.2664 78.2224 80.1739 76.461 80.1639 72.1176C80.1539 67.7641 83.2264 62.4499 86.9994 60.2681V59.9278V59.2473V58.887H86.9894Z" fill="#F2C557"/>
<path d="M28.7329 105.314L28.7429 110.468L31.375 108.947L31.365 103.793L28.7329 105.314Z" fill="#F2C557"/>
<path d="M27.9423 119.655C24.6998 121.527 24.7498 139.721 21.5072 141.593C18.2646 143.474 18.2246 129.023 14.972 130.894C11.7194 132.766 11.7394 138 8.48683 139.871L8.52687 152.952L40.9827 134.217L40.9427 121.136C37.7001 123.008 37.7201 128.242 34.4675 130.114C31.225 131.985 31.1849 117.784 27.9423 119.655Z" fill="white"/>
<path d="M23.5988 105.254L23.6189 113.42L26.251 111.909L26.2209 103.733L23.5988 105.254Z" fill="#F2C557"/>
<path d="M18.4647 105.184L18.4948 116.383L21.1169 114.872L21.0868 103.673L18.4647 105.184Z" fill="#F2C557"/>
<path d="M13.3207 105.134L13.3607 119.345L15.9928 117.824L15.9528 103.613L13.3207 105.134Z" fill="#F2C557"/>
<path d="M8.18657 105.074L8.2366 122.307L10.8687 120.786L10.8187 103.552L8.18657 105.074Z" fill="#F2C557"/>
<path d="M81.1847 37.2597V39.0711L88.6006 34.7977L88.5906 32.9862L81.1847 37.2597Z" fill="white"/>
<path d="M108.226 25.4103L108.236 27.2117L113.661 24.0792L113.651 22.2778L108.226 25.4103Z" fill="white"/>
<path d="M44.7657 62.0495V63.851L69.2752 49.7097L69.2652 47.8983L44.7657 62.0495Z" fill="white"/>
<path d="M26.1909 87.81L26.2009 89.6115L40.8326 81.1647V79.3633L26.1909 87.81Z" fill="white"/>
<path d="M30.8146 77.6219L30.8246 79.4233L40.8125 73.6587L40.8025 71.8473L30.8146 77.6219Z" fill="white"/>
<path d="M35.3683 67.4738V69.2752L40.7926 66.1528L40.7826 64.3513L35.3683 67.4738Z" fill="white"/>
<path d="M24.8899 77.2816L24.8999 79.0831L40.8025 69.9057L40.7925 68.1043L24.8899 77.2816Z" fill="white"/>
<path d="M18.2946 88.6106L18.3046 90.4221L40.8226 77.4117L40.8126 75.6003L18.2946 88.6106Z" fill="white"/>
<path d="M8.3667 98.0981L8.3767 99.8996L23.6689 91.0725L23.6589 89.2711L8.3667 98.0981Z" fill="white"/>
<path d="M18.2546 73.5887L18.2646 75.4001L40.7826 62.3998L40.7725 60.5883L18.2546 73.5887Z" fill="white"/>
<path d="M8.34667 90.5922L8.35668 92.3936L28.2926 80.8945L28.2826 79.083L8.34667 90.5922Z" fill="white"/>
<path d="M8.33668 86.8391L8.34669 88.6406L22.3679 80.5441V78.7427L8.33668 86.8391Z" fill="white"/>
<path d="M8.3267 83.0863L8.3367 84.8878L32.8362 70.7365V68.9351L8.3267 83.0863Z" fill="white"/>
<path d="M8.31666 79.3332V81.1447L15.7326 76.8612L15.7226 75.0498L8.31666 79.3332Z" fill="white"/>
<path d="M8.36668 94.3452V96.1566L15.7726 91.8732V90.0718L8.36668 94.3452Z" fill="white"/>
<path d="M88.1703 84.8878L88.2003 93.7548L99.3893 87.2997L99.3592 78.4326L88.1703 84.8878Z" fill="#F2C557"/>
<path d="M59.3173 101.541L59.3473 110.408L70.5362 103.953L70.5062 95.0858L59.3173 101.541Z" fill="#F2C557"/>
<path d="M102.642 89.7415L102.662 98.6085L113.851 92.1434L113.821 83.2763L102.642 89.7415Z" fill="#F2C557"/>
<path d="M88.2103 98.0682L88.2303 106.935L99.4192 100.48L99.3992 91.613L88.2103 98.0682Z" fill="#F2C557"/>
<path d="M73.7888 106.395L73.8089 115.262L84.9978 108.807L84.9778 99.9397L73.7888 106.395Z" fill="#F2C557"/>
<path d="M59.3573 114.731L59.3873 123.588L70.5763 117.133L70.5462 108.266L59.3573 114.731Z" fill="#F2C557"/>
<path d="M44.9358 123.048L44.9559 131.915L56.1448 125.46L56.1248 116.593L44.9358 123.048Z" fill="#F2C557"/>
<path d="M6.03482 66.4029L8.6469 64.8917L22.3078 57.0054L24.1192 55.9646L30.154 52.4818L30.7145 52.1616L40.2121 46.6772L42.2237 45.5163L48.2685 42.0335L50.6604 40.6524L68.4646 30.3642L72.4277 28.0724L78.4625 24.5896L84.4973 21.1068L86.8092 19.7758L94.5954 15.2822L96.567 14.1413L100.29 11.9896L108.747 7.10566L114.661 3.69294L117.624 1.98158L120.686 0.210167C120.736 0.180144 120.776 0.160128 120.816 0.140112C120.856 0.120096 120.886 0.110088 120.926 0.0900718C120.936 0.0900718 120.936 0.0900718 120.946 0.0800638C120.956 0.0800638 120.956 0.0800638 120.956 0.0800638C120.976 0.0700558 121.006 0.0600478 121.026 0.0500399C121.056 0.0400319 121.086 0.0300239 121.117 0.0300239C121.147 0.0200159 121.167 0.0200159 121.187 0.010008C121.197 0.010008 121.197 0.010008 121.197 0.010008H121.207C121.237 0 121.277 0 121.297 0C121.327 0 121.367 0 121.387 0C121.397 0 121.407 0 121.417 0C121.427 0 121.427 0 121.437 0C121.457 0 121.477 0.010008 121.497 0.010008C121.537 0.0300239 121.577 0.0500399 121.607 0.0700558L121.937 0.260207C122.027 0.310247 122.097 0.390311 122.157 0.500399C122.177 0.540431 122.197 0.580463 122.207 0.630502C122.217 0.670534 122.227 0.710566 122.237 0.750598C122.247 0.79063 122.257 0.830662 122.257 0.870694C122.257 0.910726 122.267 0.950758 122.267 1.0008C122.267 1.04083 122.267 1.09087 122.267 1.1309V1.12089V1.48118V1.84147V2.21176V2.58206V3.33266V4.08325V4.45355C122.267 4.47356 122.267 4.48357 122.267 4.50359V4.85387V5.23417V5.56443C122.267 5.61447 122.267 5.66451 122.267 5.71455V5.99478V6.37508V6.70534C122.267 6.74537 122.267 6.79541 122.267 6.83545V7.12568V7.29581C122.297 7.44593 122.297 7.60606 122.297 7.76619V7.84625V7.9063C122.297 8.12648 122.297 8.34665 122.297 8.56683L116.273 12.0396L113.951 13.3807C110.088 15.6124 106.215 17.8442 102.352 20.076L98.1883 22.4779L92.1534 25.9607L86.1186 29.4435L80.0838 32.9262L74.039 36.409L61.9594 43.3846L55.9146 46.8673L49.8798 50.3501L43.8449 53.8329L37.8101 57.3157L31.7753 60.7984L25.7405 64.2812L19.7057 67.764L13.6809 71.2468L7.65611 74.7295L1.63131 78.2023C2.44196 77.7419 3.48279 76.551 4.3735 75.0098C4.3735 75.0298 4.3735 72.3376 4.3735 72.3577C4.15332 72.2276 3.92314 72.0975 3.68295 71.9673C3.61289 71.9273 3.54283 71.8873 3.47278 71.8473C3.21257 71.6971 2.95236 71.547 2.69216 71.3969C2.64212 71.3669 2.59207 71.3368 2.54203 71.3068C2.49199 71.2768 2.45196 71.2568 2.40192 71.2268C2.26181 71.1467 2.11169 71.0566 1.97158 70.9766C1.95156 70.9665 1.93155 70.9565 1.91153 70.9465C1.78143 70.8665 1.65133 70.7964 1.53123 70.7264C1.52123 70.7163 1.50121 70.7164 1.4912 70.7063C1.47119 70.6863 1.44116 70.6763 1.41114 70.6663C1.38111 70.6563 1.3611 70.6363 1.34108 70.6263C1.31106 70.6063 1.28104 70.5862 1.25101 70.5762C1.21098 70.5462 1.17095 70.5262 1.13091 70.5062C1.12091 70.5062 1.12091 70.4962 1.1109 70.4962C1.07087 70.4762 1.03083 70.4461 0.990803 70.4261C0.870707 70.3561 0.770627 70.296 0.670548 70.246L0.340283 70.0558C0.310259 70.0358 0.270228 70.0158 0.240205 69.9958C0.220189 69.9858 0.200175 69.9758 0.180159 69.9658C0.170151 69.9557 0.160137 69.9557 0.150129 69.9457C0.140121 69.9457 0.130116 69.9357 0.130116 69.9257C0.130116 69.9257 0.120106 69.9257 0.120106 69.9157C0.10009 69.9057 0.0900812 69.8957 0.0800733 69.8957C0.0800733 69.8957 0.0700686 69.8857 0.0600607 69.8857C0.0500527 69.8857 0.0400405 69.8757 0.0400405 69.8757C0.0400405 69.8757 0.0300358 69.8657 0.0200279 69.8657C0.0100199 69.8657 0.0100177 69.8657 0.0100177 69.8557H1.5271e-05L6.03482 66.4029ZM121.597 3.69294C121.557 3.79302 121.517 3.88309 121.477 3.98317C121.587 3.75299 121.677 3.53281 121.767 3.31264C121.757 3.33266 121.757 3.34266 121.747 3.36268C121.697 3.47277 121.647 3.58285 121.597 3.69294ZM121.847 3.07245C121.887 2.98238 121.917 2.8923 121.947 2.80223C121.917 2.8923 121.887 2.98238 121.847 3.07245ZM122.027 2.52201C122.047 2.46196 122.067 2.40191 122.077 2.35187C122.067 2.40191 122.047 2.46196 122.027 2.52201ZM122.177 1.95156C122.187 1.93154 122.187 1.91152 122.197 1.89151C122.187 1.91152 122.187 1.93154 122.177 1.95156ZM121.227 7.96635C121.747 8.26659 122.097 8.45674 122.227 8.52679C122.087 8.44673 121.747 8.25658 121.227 7.96635ZM120.886 7.76619L120.876 6.45514C120.886 7.12568 120.886 7.7862 120.886 7.76619ZM121.457 4.0132C121.437 4.04322 121.417 4.07325 121.407 4.11328C121.247 4.44354 121.076 4.78381 120.876 5.12408C121.097 4.74378 121.287 4.37349 121.457 4.0132Z" fill="#393971"/>
<path d="M0.0200279 70.5963V70.5763C0.0200279 70.3461 0.0200279 70.1159 0.0200279 69.8757C0.0200279 69.8757 0.1101 69.9358 0.270227 70.0259C0.290243 70.0359 0.320269 70.0559 0.350293 70.0659C0.360301 70.0659 0.360303 70.0659 0.360303 70.0659L0.69056 70.256C0.760616 70.2961 0.840685 70.3461 0.930757 70.3962C0.990805 70.4262 1.06086 70.4662 1.1209 70.5062C1.20097 70.5463 1.27103 70.5963 1.3611 70.6364C1.41114 70.6664 1.47118 70.6964 1.52122 70.7264C1.59128 70.7665 1.65132 70.7965 1.72138 70.8365C1.79144 70.8765 1.8715 70.9266 1.94156 70.9666C2.02162 71.0167 2.1217 71.0667 2.21178 71.1167C2.23179 71.1367 2.26181 71.1468 2.29183 71.1668C2.43195 71.2568 2.59208 71.3369 2.75221 71.427C2.82226 71.467 2.89232 71.507 2.96237 71.5471C3.15253 71.6572 3.35268 71.7773 3.55284 71.8874C3.84307 72.0575 4.1233 72.2176 4.39352 72.3677V75.0198C4.2434 75.2801 4.08327 75.5303 3.93315 75.7704C3.88311 75.8405 3.83307 75.9106 3.78303 75.9906C3.71297 76.0907 3.64292 76.2108 3.56285 76.3109C3.53283 76.3509 3.5028 76.3809 3.47278 76.421C3.35268 76.5811 3.24259 76.7212 3.1225 76.8613C3.07246 76.9214 3.02242 76.9914 2.97238 77.0515C2.95236 77.0715 2.93235 77.0915 2.90232 77.1215C2.85228 77.1816 2.79224 77.2416 2.7422 77.2917C2.68215 77.3617 2.61209 77.4318 2.55204 77.5018C2.502 77.5519 2.45197 77.6019 2.39192 77.6419C2.3619 77.672 2.33187 77.702 2.29183 77.732C2.27182 77.752 2.2418 77.782 2.22178 77.8021C2.13171 77.8821 2.04164 77.9522 1.96158 78.0122C1.93155 78.0322 1.91154 78.0523 1.88151 78.0623C1.8615 78.0723 1.85148 78.0923 1.83147 78.1023C1.80144 78.1223 1.77142 78.1423 1.7414 78.1623C1.68135 78.2024 1.61129 78.2424 1.55125 78.2724C1.51121 78.2925 1.48119 78.3025 1.44116 78.3225C1.43115 78.3325 1.42114 78.3325 1.40113 78.3425C1.39112 78.3425 1.37111 78.3525 1.3611 78.3625C1.30105 78.3825 1.241 78.4025 1.18096 78.4226C1.14092 78.4326 1.11089 78.4226 1.08087 78.4326C1.06085 78.4326 1.03083 78.4326 1.01082 78.4326C1.00081 78.4326 0.970788 78.4326 0.96078 78.4326C0.870708 78.4226 0.800647 78.4025 0.720583 78.3625L0.390326 78.1724C0.390326 78.1724 0.390324 78.1623 0.380316 78.1623C0.330276 78.1323 0.280239 78.0923 0.250215 78.0423L0.240205 78.0322C0.220189 78.0022 0.200175 77.9722 0.180159 77.9322C0.170151 77.9122 0.160137 77.8821 0.150129 77.8621C0.150129 77.8521 0.140126 77.8421 0.140126 77.8421C0.140126 77.8321 0.140124 77.8321 0.130116 77.8221C0.120108 77.782 0.110099 77.742 0.0900834 77.692C0.0900834 77.672 0.0900812 77.6519 0.0800733 77.6319C0.0800733 77.6119 0.0800788 77.6019 0.0700708 77.5919C0.0700708 77.5719 0.0600607 77.5619 0.0600607 77.5419C0.0600607 77.4818 0.0500506 77.4218 0.0500506 77.3517V77.1816V76.9614V76.7012V76.511V76.2408V75.9806C0.0500506 75.8905 0.0500506 75.8005 0.0500506 75.7004V75.4902V75.1199V74.7596C0.0500506 74.7396 0.0500506 74.7196 0.0500506 74.6896V74.3593V74.1792C0.0500506 73.989 0.0500506 73.7889 0.0500506 73.5987V73.2184V73.0183C0.0500506 72.8481 0.0500506 72.678 0.0500506 72.5078V72.4578V72.4378C0.0500506 72.1275 0.0500506 71.8173 0.0500506 71.507V71.3369V71.2268C0.0500506 71.0267 0.0500506 70.8265 0.0500506 70.6263V70.5963H0.0200279Z" fill="#30305E"/>
<path d="M8.94711 68.9749C8.28658 69.3552 7.75616 70.2759 7.75616 71.0265C7.75616 71.7871 8.29659 72.0774 8.94711 71.7071C9.60763 71.3268 10.1381 70.416 10.128 69.6554C10.1381 68.9048 9.59763 68.5946 8.94711 68.9749Z" fill="white"/>
<path d="M15.7825 65.0319C15.132 65.4122 14.6016 66.3329 14.6016 67.0835C14.6016 67.8341 15.142 68.1344 15.7926 67.7641C16.4431 67.3838 16.9835 66.4731 16.9835 65.7125C16.9835 64.9519 16.4431 64.6516 15.7825 65.0319Z" fill="white"/>
<path d="M22.618 61.0787C21.9575 61.459 21.4271 62.3797 21.4371 63.1404C21.4371 63.891 21.9775 64.1912 22.628 63.8109C23.2885 63.4306 23.819 62.5199 23.819 61.7593C23.819 61.0087 23.2785 60.6984 22.618 61.0787Z" fill="white"/>
</svg>
